<?xml version="1.0" standalone="no"?> <!DOCTYPE svg PUBLIC "-//W3C//DTD SVG 1.0//EN" "http://www.w3.org/TR/2001/REC-SVG-20010904/DTD/svg10.dtd" > <svg xmlns="http://www.w3.org/2000/svg" width="100%" height="100%">
<defs >
<font horiz-adv-x="1274" ><font-face
    font-family="Doctor Glitch"
    units-per-em="2048"
    panose-1="2 0 5 0 0 0 0 0 0 0"
    ascent="1716"
    descent="-418"
    alphabetic="0" />
<missing-glyph horiz-adv-x="1024" d="M100 0V1434H924V0H100ZM150 50H874V1384H150V50ZM325 1148Q356 1176 383 1191Q436 1221 495 1221Q587 1221 643 1174T699 1046Q699 997 676 948T589 818Q526 738 490 686T454 587Q454 549 478 454H446Q411 551 411 602Q411
678 492 820T574 1037Q574 1094 541 1127T450 1160Q412 1160 381 1143Q355 1128 325 1103V1148ZM389 334L446 392Q457 402 466 402Q476 402 488 391L544 331Q553 320 553 311Q553 300 543 289L487 227Q473 213 466 213Q455 213 446 223L385 294Q378 303 378 312Q378
322 389 334Z" />
<glyph unicode=" " glyph-name="space" horiz-adv-x="508" />
<glyph unicode="!" glyph-name="exclam" horiz-adv-x="613" d="M82 1644H180Q186 1644 186 1637L199 1644H525Q539 1632 584 1624Q584 1507 545 1507H532Q519 1322 519 1149Q502 1135 486 1135V1096Q512 1093 512 1077V1070Q512 1057 499 1057H440Q427 1055 427
1044V1038H492Q505 1036 505 1025V959H538L551 953Q551 859 532 464Q538 464 538 457Q522 444 519 444H342Q287 444 166 451L160 464Q147 808 147 946Q95 946 95 1031L82 1038H23Q10 1038 10 1051L23 1057H82Q95 1057 95 1070V1077Q56 1100 56 1135Q88 1142 88
1149Q88 1204 82 1507L95 1514H101L114 1507L121 1520V1618Q121 1631 82 1631V1644ZM401 229Q521 229 584 99Q584 90 545 79Q545 69 532 53Q558 43 558 34V-12Q498 -188 362 -188Q180 -188 140 -149Q49 -67 49 47H36V66Q112 90 121 105Q121 158 225 210L245 223H284Q340
223 401 229Z" />
<glyph unicode="&quot;" glyph-name="quotedbl" horiz-adv-x="869" d="M60 1052L65 1063L59 1091Q59 1097 64 1097L58 1136L60 1181L65 1215L59 1226L65 1237L58 1259Q58 1271 64 1271L57 1327L56 1394Q55 1447 59 1523Q53 1544 52 1567L63 1573L108 1574L131
1541H159Q159 1575 170 1575L209 1576Q220 1576 220 1565L221 1526H232Q232 1543 243 1543L355 1545Q366 1547 366 1557L365 1607Q367 1618 376 1619Q387 1619 388 1608L396 1025Q397 1011 374 1008L375 952Q376 940 364 940L252 938L230 910L225 921L224 971L168
970Q168 936 157 936H140Q129 936 128 969L78 968Q67 970 67 979L66 1030Q65 1042 60 1052ZM470 1052L475 1064L469 1091Q469 1097 475 1097L468 1136L470 1181L475 1215L469 1226L475 1238L469 1260Q468 1271 474 1271L467 1327L466 1394Q465 1448 469 1523Q463
1545 463 1568L474 1574L518 1575L542 1541L570 1542Q569 1576 580 1576L619 1577Q630 1577 631 1566V1526L643 1527Q642 1543 654 1544L766 1546Q777 1548 777 1557L776 1608Q777 1619 787 1619Q798 1619 798 1608L806 1025Q807 1011 784 1008L786 952Q786 941
775 941L663 938L641 910L635 921L634 972L578 970Q579 937 567 937L551 936Q539 936 539 970L488 969Q477 970 477 980L476 1030Q476 1043 470 1052Z" />
<glyph unicode="#" glyph-name="numbersign" horiz-adv-x="2758" d="M88 1417H227Q383 1417 458 1302Q487 1302 495 1275Q509 1244 509 1210Q515 1217 532 1285Q560 1342 590 1342Q604 1342 604 1349Q580 1349 580 1359Q604 1386 655 1397Q697 1417 763 1417H770Q817
1417 865 1397V1393L861 1386Q921 1349 936 1349H953V1342H933Q987 1271 987 1230V1227H946V1224Q966 1224 970 1220Q976 1224 984 1224Q990 1224 990 1203Q1007 1203 1007 1210Q1007 1247 1034 1298Q1029 1302 1014 1302Q1022 1339 1075 1373H1079V1376H1045V1380Q1081
1416 1167 1417H1177Q1252 1417 1319 1380Q1379 1380 1404 1336Q1431 1314 1431 1295Q1360 1251 1343 1251H1330Q1273 1322 1221 1322Q1211 1322 1163 1305V1302Q1177 1302 1177 1295Q1134 1254 1126 1207Q1089 1203 1089 1196Q1129 1196 1129 1173Q1129 1139 1160
1091H1143Q1143 1073 1221 1054Q1323 1076 1323 1095Q1309 1095 1309 1098Q1313 1109 1330 1125H1343Q1408 1095 1425 1095Q1452 1088 1452 1081V1078Q1452 1074 1425 1064Q1414 1037 1381 1037Q1374 1036 1374 1030Q1394 1030 1394 1023Q1318 959 1245 959H1211Q1114
959 1038 1030H1014V1037H1031V1040Q1004 1076 1004 1085H1001Q1001 1074 994 1074H963Q956 1068 936 1068V1064H950V1057Q882 959 756 959Q625 959 546 1064H543V1068Q543 1074 576 1074Q549 1129 549 1166L556 1169H614V1176H553L539 1186H515V1193H526V1196Q526
1200 512 1207L505 1203H485Q485 1193 478 1193H461V1180H478Q485 1180 485 1169Q485 1134 454 1071H485V1064H451Q424 1034 420 1034H383L366 1030V1023H410V1017Q333 959 268 959H88Q81 959 81 966V1023H40Q34 1023 34 1030V1034H81V1057Q81 1064 115 1064V1068Q81
1070 81 1078V1173L57 1186Q83 1202 108 1207V1298Q81 1302 81 1308V1410Q82 1417 88 1417ZM1438 1417H1777Q1784 1417 1791 1383V1336Q1791 1329 1784 1329H1679V1271Q1669 1254 1642 1254L1666 1241Q1666 1227 1669 1213Q1663 1210 1655 1210V1112Q1655 1105
1645 1105V1101Q1672 1101 1672 1091V966Q1672 959 1666 959H1557Q1547 959 1547 1013V1095Q1530 1097 1530 1105V1207Q1530 1213 1550 1213V1220Q1540 1220 1540 1227V1247H1523V1254Q1535 1254 1550 1264H1554V1322Q1554 1329 1547 1329H1445Q1438 1329 1438
1336V1393L1431 1403V1410Q1432 1417 1438 1417ZM2012 1417H2018Q2066 1417 2113 1397V1393L2110 1386Q2169 1349 2185 1349H2202V1342H2181Q2235 1271 2235 1230V1227H2195V1224Q2214 1224 2218 1220Q2224 1224 2232 1224Q2239 1224 2242 1186H2263V1230Q2263
1237 2276 1237V1247H2259Q2256 1247 2242 1264L2252 1278V1386Q2252 1393 2263 1393V1410Q2264 1417 2269 1417H2456Q2551 1417 2551 1390Q2609 1349 2609 1278Q2605 1243 2605 1237H2612V1234Q2612 1190 2534 1149H2527L2544 1122V1115Q2537 1115 2537 1108H2500V1101H2541Q2582
1073 2582 1068Q2575 1067 2575 1061L2626 986Q2619 985 2619 979Q2629 976 2629 959H2500Q2488 965 2483 979L2490 983L2442 1061Q2449 1061 2449 1068Q2449 1080 2402 1101H2378V1010H2398V1003H2378V966Q2378 959 2371 959H2259Q2252 959 2252 966V996Q2253
1003 2259 1003H2276V1010H2259Q2252 1010 2252 1017V1085H2249Q2249 1074 2242 1074H2212Q2205 1068 2185 1068V1064H2198V1057Q2130 959 2005 959Q1873 959 1794 1064H1791V1068Q1791 1074 1825 1074Q1798 1129 1798 1166L1805 1169H1862V1176H1801L1788 1186H1764V1193H1774V1196Q1774
1203 1760 1203Q1788 1342 1839 1342Q1852 1342 1852 1349Q1828 1349 1828 1359Q1852 1386 1903 1397Q1946 1417 2012 1417ZM2378 1329V1278Q2378 1268 2364 1268V1258Q2378 1258 2378 1247H2402V1244Q2402 1237 2388 1237V1220H2446Q2470 1220 2503 1247Q2488
1247 2483 1251L2487 1258V1285Q2487 1313 2442 1329H2378ZM203 1319V1302H224Q230 1301 230 1295V1210Q200 1193 183 1193V1180H200L207 1176L203 1152V1112L207 1091Q203 1085 203 1081Q207 1075 207 1071H237V1064H207Q207 1057 203 1051L210 1047H234L312 1064H336V1068L319
1071H308V1078Q359 1114 359 1180H342Q336 1180 336 1186L366 1203H386V1207Q365 1302 312 1302Q264 1325 237 1325H210Q203 1324 203 1319ZM634 1207Q639 1207 644 1196Q638 1193 634 1193V1186H658L671 1176H729V1169Q726 1169 726 1173L719 1169H668Q668 1122
726 1081V1074H705Q701 1074 695 1064Q718 1064 753 1057Q764 1057 814 1074Q870 1074 892 1125Q901 1125 906 1176V1186H878Q868 1186 868 1220H811V1227H865Q826 1319 756 1319Q675 1319 638 1224L634 1207ZM1883 1207Q1888 1207 1893 1196Q1886 1193 1883 1193V1186H1906L1920
1176H1978V1169Q1974 1169 1974 1173L1967 1169H1917Q1917 1122 1974 1081V1074H1954Q1949 1074 1944 1064Q1967 1064 2001 1057Q2013 1057 2062 1074Q2118 1074 2140 1125Q2150 1125 2154 1176V1186H2127Q2117 1186 2117 1220H2059V1227H2113Q2075 1319 2005 1319Q1923
1319 1886 1224L1883 1207ZM74 1302Q81 1301 81 1295Q81 1288 74 1288Q68 1288 68 1295Q69 1302 74 1302ZM1499 1254H1506V1247H1499V1254ZM319 1203H329Q336 1202 336 1196L329 1193H319Q312 1193 312 1200L319 1203ZM990 1193Q991 1186 997 1186H1004V1193H990ZM44
1193Q51 1192 51 1186Q51 1180 44 1180Q37 1180 37 1186Q38 1193 44 1193ZM1062 1186V1183H1068V1186H1062ZM522 1176H539V1169H522V1176ZM1771 1176H1788V1169H1771V1176ZM719 1142H729V1139Q729 1132 722 1132L719 1139V1142ZM1967 1142H1978V1139Q1978 1132
1971 1132L1967 1139V1142ZM2378 1115V1108H2405Q2408 1108 2415 1118Q2408 1129 2408 1135H2395L2381 1115H2378ZM532 1125H536Q543 1124 543 1118L536 1115H532Q526 1115 526 1122L532 1125ZM1781 1125H1784Q1791 1124 1791 1118L1784 1115H1781Q1774 1115 1774
1122L1781 1125ZM1014 1118Q1014 1113 1007 1091H1028Q1018 1110 1018 1118H1014ZM2334 1108V1101H2368V1108H2334ZM1238 1095H1248Q1255 1094 1255 1088Q1235 1071 1221 1071H1214V1078Q1220 1078 1238 1095ZM420 867Q471 867 540 839V831H528Q571 803 620 743Q640
742 640 731Q597 696 520 667H512Q508 667 460 723L464 731Q446 743 388 751H372Q330 751 260 691H248V683H308V675H256Q236 621 236 595Q240 547 248 531L240 527H196Q240 451 280 451H308Q383 439 388 439Q460 451 488 479Q520 516 520 527H372Q364 527 364 535V583Q372
593 372 599L368 619H552Q586 619 660 623L672 603V599Q656 582 656 535V531H664V527Q664 471 612 443Q531 327 396 327H368Q227 327 132 451H84Q52 495 52 519Q53 527 60 527H104Q96 568 96 599Q96 667 116 675H160V683H108V691Q116 691 152 763Q210 835 268 835Q317
867 420 867ZM688 867H820Q825 867 840 835V799Q840 793 824 783H804V771Q828 771 828 763V559Q840 559 840 551V439Q841 431 848 431H1016Q1024 430 1024 423V363Q1024 355 1016 355H1012Q1008 355 1008 359Q1000 355 996 355V351Q1024 351 1024 343V335Q1024
327 1016 327H704Q699 327 688 355Q696 355 696 363V547L680 563V771H664V779Q672 779 696 791V835L680 851V859Q681 867 688 867ZM1060 867H1192Q1200 867 1200 843H1216Q1216 867 1224 867H1624Q1632 867 1640 827V767Q1685 815 1700 815V819H1660V823Q1703 866
1804 867H1816Q1905 867 1984 823Q2054 823 2084 771Q2116 746 2116 723Q2032 671 2012 671H1996Q1929 755 1868 755Q1856 755 1800 735V731Q1816 731 1816 723Q1766 675 1756 619Q1712 615 1712 607Q1760 607 1760 579Q1760 539 1796 483H1776Q1776 462 1868 439Q1988
464 1988 487Q1972 487 1972 491Q1976 504 1996 523H2012Q2088 487 2108 487Q2140 479 2140 471V467Q2140 462 2108 451Q2095 419 2056 419Q2048 418 2048 411Q2072 411 2072 403Q1982 327 1896 327H1856Q1742 327 1652 411H1624V419H1644V423Q1618 458 1608 479Q1612
483 1640 483Q1621 530 1608 591L1612 599V603H1580Q1572 603 1572 611Q1616 616 1616 623Q1616 667 1648 727Q1642 731 1624 731Q1624 744 1636 759V763H1508V695Q1497 675 1464 675L1492 659Q1492 643 1496 627Q1489 623 1480 623V507Q1480 499 1468 499V495Q1500
495 1500 483V335Q1500 327 1492 327H1364Q1352 327 1352 391V487Q1332 490 1332 499V619Q1332 627 1356 627V635Q1344 635 1344 643V667H1324V675Q1338 675 1356 687H1360V755Q1360 763 1352 763H1232Q1224 763 1224 771V835H1200V595H1220Q1228 594 1228 587Q1228
579 1220 579H1168V563H1208Q1216 562 1216 555V415Q1216 407 1200 407V343Q1216 343 1216 335Q1216 327 1208 327H1076Q1057 351 1052 351L1056 359V399L1036 419Q1037 427 1044 427H1048Q1056 427 1056 407H1068V563H1028Q1020 563 1020 571Q1021 579 1028 579H1080V587L1052
603V831Q1052 835 1048 835Q1052 867 1060 867ZM2160 867H2292Q2300 866 2300 859V719Q2300 711 2292 711H2272V703Q2273 695 2280 695H2300V691L2296 683Q2312 678 2312 647H2504V671Q2488 683 2488 695H2432Q2424 695 2424 703L2432 707H2488V859Q2489 867 2496
867H2624Q2632 866 2632 859V711H2612L2588 707Q2581 711 2568 711V695H2632Q2632 680 2648 671V535H2668Q2676 534 2676 527V523Q2676 515 2668 515H2648V475Q2648 467 2632 467V327H2496Q2488 327 2488 335V463Q2488 471 2504 471V507L2528 523V527Q2528 532
2496 543H2312V471H2344Q2352 470 2352 463Q2352 455 2344 455H2292Q2284 454 2284 447V335Q2284 327 2276 327H2148Q2140 327 2140 335V447Q2141 455 2148 455H2196Q2204 455 2204 463V471H2172Q2164 471 2164 479V671Q2152 684 2152 695H2132Q2124 695 2124 703Q2152
708 2152 715V823Q2152 827 2156 827L2152 835V859Q2153 867 2160 867ZM1068 843V835H1076V843H1068ZM80 691H84V683H80V691ZM1296 675H1304V667H1296V675ZM336 623H344Q352 622 352 615V611H336Q328 611 328 619L336 623ZM308 619H316V611H308V619ZM1680 595V591H1688V595H1680ZM2468
535H2480Q2488 534 2488 527Q2488 519 2480 519H2468Q2460 519 2460 527Q2461 535 2468 535ZM1888 487H1900Q1908 486 1908 479Q1885 459 1868 459H1860V467Q1867 467 1888 487ZM94 280H149Q153 280 166 242Q169 242 169 239L166 225Q179 175 186 164L179 154H186L200
164Q200 167 196 167Q210 236 224 236V239Q224 246 217 246Q226 280 234 280H285Q290 280 302 242H306V236Q306 232 302 232Q319 172 326 164L319 154H323Q337 154 347 215Q364 280 371 280H425L432 277Q418 223 401 167Q405 167 405 164Q390 154 377 154V150Q393
143 401 143V140Q401 138 394 130Q394 128 398 116Q381 52 367 41H306Q300 41 282 120L271 143L251 147V154Q260 154 268 161L265 167Q268 186 268 195L261 198Q258 173 254 167Q258 167 258 164Q245 154 231 154V150Q246 143 254 143V137H248Q248 125 251 120Q234
41 227 41H162Q156 41 135 123Q130 123 125 143L104 147V154L121 161Q111 173 97 232Q104 232 104 239Q92 239 87 277L94 280ZM545 280Q581 280 620 246Q657 220 657 161Q664 164 668 164Q668 171 661 171Q673 239 705 239V242H698V249Q698 267 794 280Q834 280
886 232Q907 195 907 178V164H910Q930 167 930 174V212Q930 219 917 219V273Q918 280 924 280H982Q1071 280 1111 219Q1139 210 1139 171H1142Q1152 211 1152 219Q1146 219 1146 225Q1168 253 1176 253V256H1166V260Q1182 280 1227 280Q1255 280 1313 260Q1332
260 1361 222V215Q1361 206 1313 191Q1275 229 1255 229Q1229 222 1227 222L1231 215Q1210 194 1204 167H1187V164Q1209 164 1214 123Q1217 123 1217 109H1214V106Q1244 92 1251 92Q1303 100 1303 109Q1299 116 1299 120Q1310 130 1316 130Q1350 113 1374 106Q1374
113 1388 113Q1381 135 1381 143L1388 147L1385 164Q1385 172 1388 178Q1388 184 1367 201Q1369 208 1374 208L1371 225V273Q1372 280 1378 280H1429Q1436 279 1436 273V219Q1436 215 1439 215L1432 198Q1449 194 1449 188V157Q1449 142 1443 130Q1448 130 1453
120V116Q1453 109 1443 109Q1456 89 1477 89Q1485 89 1528 120V191Q1517 191 1511 195L1514 219V273Q1515 280 1521 280H2057Q2064 279 2064 273V246H2071Q2072 275 2084 280H2170Q2252 275 2252 222Q2255 222 2255 208V184Q2243 140 2214 140Q2221 129 2221 120H2201V116Q2230
116 2242 99Q2242 96 2238 96Q2265 53 2265 44L2259 41H2201Q2196 41 2190 51L2194 58Q2174 76 2166 106Q2161 106 2149 116L2153 123V126Q2153 133 2146 133H2143Q2143 123 2136 123Q2136 120 2139 120L2136 102V72Q2136 68 2139 68Q2136 41 2129 41H2078Q2071
41 2071 48V58Q2071 65 2081 65V68Q2076 68 2067 75H2064V48Q2064 41 2057 41H1914Q1907 41 1907 48V68H1897V75H1921V79H1910L1914 96Q1908 96 1904 130L1907 137V161L1900 171L1907 174Q1908 167 1914 167H1927V222Q1917 222 1917 232H1866V205Q1866 195 1849
195V191Q1859 191 1863 174Q1856 171 1852 171V116Q1863 116 1863 109V48Q1863 41 1856 41H1805Q1798 41 1798 48V113H1784L1787 130V167Q1787 174 1798 174Q1791 188 1791 195Q1796 195 1801 205V232H1702V205Q1702 195 1685 195V191Q1695 191 1699 174Q1692 173
1692 167V123L1688 116Q1699 116 1699 109V48Q1699 41 1692 41H1641Q1634 41 1634 48V113H1624L1627 130V167Q1628 174 1634 174L1627 195Q1632 195 1637 205V232H1579V219Q1579 215 1583 215L1572 198Q1593 194 1593 188V116Q1577 107 1562 75Q1533 41 1487 41Q1398
41 1374 102Q1369 102 1344 82H1333V79H1340V75Q1309 41 1258 41H1255Q1179 41 1142 102V113H1152Q1142 157 1135 157Q1130 161 1118 161H1111V157Q1125 157 1125 150Q1113 89 1098 89Q1098 79 1064 79V75H1084V68Q1042 41 1006 41H924Q917 41 917 48V75H893V82H917Q917
96 927 96V99Q917 99 917 109H913Q913 98 886 96Q857 41 790 41Q713 41 678 99V102H691Q681 133 681 143Q681 150 712 150V154Q678 154 678 150Q672 99 647 99Q643 99 606 61Q578 41 538 41Q465 41 429 99V102Q442 102 442 106Q435 117 429 147Q429 150 463 150V154Q436
154 415 157V161L418 167Q411 167 411 174Q425 239 452 239H456V242H449V249Q483 280 545 280ZM2361 280H2501Q2508 279 2508 273V246Q2522 246 2522 239L2511 232H2426V229L2440 215V184H2515V164H2498V143Q2498 137 2491 137H2429L2412 133Q2417 129 2422 92L2429
89H2501Q2503 89 2511 82Q2508 41 2501 41H2361Q2354 41 2354 48V68H2344Q2344 41 2317 41H2306Q2279 41 2279 75Q2300 96 2313 96H2320Q2344 96 2344 75H2368V79Q2354 79 2354 85Q2361 85 2361 92Q2355 100 2351 130L2354 137V161L2347 171L2364 167H2375V222Q2361
222 2361 229V232L2368 242Q2354 242 2354 249V273Q2355 280 2361 280ZM2597 280H2603Q2679 267 2679 246Q2653 212 2634 212Q2613 232 2600 232Q2586 227 2586 222V208Q2599 208 2624 188Q2689 164 2689 150Q2682 149 2682 143Q2699 142 2699 133V130L2685 89Q2685
80 2679 72H2689V68Q2675 41 2617 41Q2582 41 2539 72Q2520 72 2515 89V92Q2517 100 2569 123Q2584 92 2603 92H2614Q2619 92 2627 106V109L2624 126Q2627 126 2627 130Q2535 154 2535 198Q2539 198 2539 201Q2522 209 2522 219Q2538 280 2597 280ZM91 242V236H84Q85
242 91 242ZM1982 232V222Q1992 222 1992 215V184H2064Q2071 183 2071 178V171Q2071 164 2050 164V143Q2050 137 2044 137H1989L1965 133V130Q1979 130 1979 89H2057Q2064 89 2064 79H2071V113L2067 120Q2074 123 2078 123V174L2081 191Q2073 191 2067 195L2071
219V232H1982ZM2136 232V208L2129 198Q2146 190 2146 188Q2143 181 2143 178H2180Q2197 187 2197 191Q2191 191 2187 222Q2174 232 2163 232H2136ZM982 229V219Q995 219 995 212V174Q995 167 968 161V157Q982 157 982 150V102Q982 99 985 99L982 92V89H1002Q1026
96 1043 96V99H1036V102Q1060 134 1060 154H1050V164L1074 167Q1074 214 1006 229H982ZM476 174V161Q489 161 497 154L493 147Q493 130 521 102Q514 99 510 99V96L541 92Q541 99 589 106Q613 129 613 154V157Q596 157 596 174H569V181H592V184Q570 225 541 225H534Q476
213 476 174ZM726 171Q726 164 746 154L743 147Q743 130 770 102Q763 99 760 99V96Q772 96 790 92Q790 99 838 106Q863 129 866 157Q845 157 845 174H818V181H842V184Q822 225 790 225H784Q726 213 726 171ZM1040 167H1047V161H1040V167ZM166 154V150H176V154H166ZM306
154V150H312V154H306ZM176 147V143H186V147H176ZM319 147V143H326V147H319ZM193 137V130Q194 123 200 123Q200 136 207 143H200Q193 142 193 137ZM333 133Q336 127 336 123H340Q340 132 347 143H340Q333 143 333 133ZM422 130H425V123H422V130ZM2115 120V116H2129V120H2115ZM1265
113H1268V109Q1268 104 1258 99H1251V106Q1257 106 1265 113ZM2030 75V72H2044V75H2030ZM2477 75V72H2487V75H2477Z" />
<glyph unicode="$" glyph-name="dollar" horiz-adv-x="1014" />
<glyph unicode="%" glyph-name="percent" horiz-adv-x="1610" />
<glyph unicode="&amp;" glyph-name="ampersand" horiz-adv-x="1482" d="M597 1644H1044Q1057 1642 1057 1630V1461Q1057 1451 1037 1441H983V1312Q983 1299 969 1299H908Q807 1299 631 1292Q615 1292 529 1238V1217Q544 1217 556 1211Q544 1148 529 1129V1109Q541
1019 590 967Q563 937 563 926Q642 879 881 879Q895 879 895 892L874 919V933Q884 933 929 953H942V1123Q942 1143 1118 1143H1416Q1430 1141 1430 1129Q1423 1055 1423 1001Q1430 965 1430 960Q1360 933 1355 933V906Q1393 879 1409 879H1606Q1619 877 1619 865V567Q1619
554 1606 554H1430L1423 520V357Q1423 344 1348 337L1342 290V276L1389 249Q1389 136 1199 -49Q1147 -96 1064 -96Q1045 -96 874 -164Q811 -191 658 -191H576Q419 -177 306 -130Q251 -116 251 -103V-96H285V-76Q134 15 62 195Q62 263 8 263Q-13 263 -13 276V344H42Q51
344 62 364V405Q62 552 224 723V730Q157 804 109 886Q81 886 42 906Q32 906 21 926Q21 937 82 960Q55 1014 55 1163V1197L62 1211L14 1224Q18 1294 82 1421L103 1441H177Q303 1644 597 1644ZM-60 953H8V940H-60V953ZM495 344H448V317Q448 311 461 263H516Q613 161
725 161H786Q888 226 888 263H881L847 256L841 269Q870 344 895 344Q942 344 942 357V554H725Q605 554 529 425Q507 344 495 344Z" />
<glyph unicode="&apos;" glyph-name="quotesingle" horiz-adv-x="407" d="M40 1052L45 1063L39 1091Q39 1097 45 1097L38 1136L40 1181L45 1215L39 1226L45 1237L39 1260Q39 1271 44 1271L37 1327L36 1394Q35 1447 39 1523Q33 1544 33 1568L44 1573L89 1574L112
1541L140 1542Q139 1575 150 1575L189 1576Q201 1576 201 1565L202 1526H213Q212 1543 224 1543L336 1546Q347 1548 347 1557L346 1607Q347 1619 357 1619Q368 1619 368 1608L377 1025Q377 1011 354 1008L356 952Q356 941 345 940L233 938L211 910L205 921L204
971L148 970Q149 937 137 936H121Q109 936 109 969L58 968Q47 970 47 979L46 1030Q46 1042 40 1052Z" />
<glyph unicode="(" glyph-name="parenleft" horiz-adv-x="758" />
<glyph unicode=")" glyph-name="parenright" horiz-adv-x="758" />
<glyph unicode="*" glyph-name="asterisk" horiz-adv-x="1024" />
<glyph unicode="+" glyph-name="plus" horiz-adv-x="1260" d="M484 595H172Q158 595 155 617H99Q88 617 88 629V741L60 763L71 769H122V825Q88 825 88 836V853Q88 864 122 864V914Q123 925 133 925H183Q196 925 206 931L217 925L245 931Q250 931 250 925L290 931H478L472
1259Q472 1273 494 1277L493 1333Q493 1344 504 1344L616 1346L638 1374L644 1363L645 1313L701 1314Q700 1347 712 1348H728Q740 1348 740 1315H791Q802 1314 802 1304L803 1254Q803 1241 809 1232L803 1220L809 1193Q810 1187 804 1187L810 1148L814 927L827
925L839 931L850 925L872 931Q883 931 883 925L939 931H1007Q1060 931 1135 925Q1157 931 1180 931L1186 920V875L1152 853V825Q1186 825 1186 813V774Q1186 763 1175 763H1135V752Q1152 752 1152 741V629Q1154 617 1163 617H1214Q1225 616 1225 606Q1225 595 1214
595H818L815 588L821 565Q821 554 815 554L822 498L823 431Q824 378 820 302Q826 280 826 257L815 252L770 251L747 284L719 283Q720 250 709 250L669 249Q658 249 658 260L657 299H646Q646 282 635 282L523 280Q512 278 512 269L513 218Q511 207 502 207Q491 207
491 218L484 595Z" />
<glyph unicode="," glyph-name="comma" horiz-adv-x="557" />
<glyph unicode="-" glyph-name="hyphen" horiz-adv-x="1260" d="M206 931L217 925L245 931Q250 931 250 925L290 931H794L827 925L839 931L850 925L872 931Q883 931 883 925L939 931H1007Q1060 931 1135 925Q1157 931 1180 931L1186 920V875L1152 853V825Q1186
825 1186 813V774Q1186 763 1175 763H1135V752Q1152 752 1152 741V629Q1154 617 1163 617H1214Q1225 616 1225 606Q1225 595 1214 595H172Q158 595 155 617H99Q88 617 88 629V741L60 763L71 769H122V825Q88 825 88 836V853Q88 864 122 864V914Q123 925 133 925H183Q196
925 206 931Z" />
<glyph unicode="." glyph-name="period" horiz-adv-x="661" d="M317 218H446Q540 218 601 109V102Q588 100 588 89L594 44Q582 38 575 38V12Q594 12 594 -1V-7Q594 -145 440 -188H311Q167 -188 117 -59Q117 10 72 19Q73 37 111 51Q115 109 162 109Q182 170 285
212L317 218ZM7 44Q20 42 20 31V25Q20 12 7 12Q-6 12 -6 25V31Q-4 44 7 44Z" />
<glyph unicode="/" glyph-name="slash" horiz-adv-x="569" />
<glyph unicode="0" glyph-name="zero" horiz-adv-x="1445" d="M843 1644Q1087 1624 1087 1591Q1077 1585 1048 1585Q1271 1420 1305 1294Q1358 1219 1391 1050Q1398 971 1430 971Q1483 971 1483 932V886Q1483 872 1470 872Q1443 872 1443 879L1397 872H1331V859L1377
853Q1392 853 1404 859Q1476 851 1476 839Q1489 846 1496 846L1509 839Q1521 846 1536 846Q1545 846 1556 826V820Q1556 810 1536 800H1470V668Q1442 340 1397 285H1272V266Q1312 266 1312 239Q1338 239 1338 219Q1232 -39 1021 -137Q921 -189 744 -189H738Q351
-189 204 28Q139 87 85 233Q65 233 19 266Q-21 266 -21 279L-7 285H39L85 292V285Q98 292 105 292Q45 513 45 622Q85 630 85 642V681Q78 701 45 701V793Q47 806 58 806H111Q118 806 118 800Q131 806 138 806V826Q138 839 124 839H58L39 853H-67Q-80 853 -80 866V872Q-50
872 -40 879L-27 872L-14 879Q-7 879 -7 872Q78 872 78 905Q85 930 85 965V971H32Q19 971 19 985Q45 1110 85 1235L164 1387Q325 1591 467 1591Q660 1644 843 1644ZM487 971H533Q543 971 553 952Q548 872 527 872H481Q466 872 454 879Q388 872 388 859Q428 859
428 846Q454 851 454 859Q540 851 540 839L553 846H586Q596 846 612 820Q612 810 593 800H527Q514 798 514 787V714Q553 689 553 681V642Q520 622 520 609Q520 419 586 299L566 285H461V279Q461 266 527 259Q527 236 586 233Q646 154 718 154Q805 173 843 233Q808
266 797 266Q784 266 784 279L797 285H863Q878 285 889 292L903 285Q972 285 1002 655V773Q995 797 995 800L1008 806H1087V826Q1087 839 1074 839H1021Q1016 839 969 853H883Q870 853 870 866L876 879Q891 879 903 872Q959 879 995 879H1015V899Q1015 971 982
971Q922 971 922 1064Q866 1237 777 1281Q721 1301 718 1301Q551 1301 487 971ZM850 1275V1268H863V1275H850ZM837 872L843 859L830 853L824 866L837 872ZM751 259L758 246L744 239H738V246Q740 259 751 259Z" />
<glyph unicode="1" glyph-name="one" horiz-adv-x="841" d="M24 1641H754Q767 1639 767 1627V1492L760 1445Q814 1438 814 1425V1418Q794 1393 794 1371V742Q796 728 808 728H896Q905 728 916 708L889 688H760L747 681L754 668V647L700 607Q700 600 706 600Q706
593 700 580Q700 519 740 519Q754 517 754 505Q754 492 740 492H591V485Q693 478 740 478L754 471L747 424V-56L754 -103L727 -123Q727 -130 733 -130Q727 -191 713 -191H368Q247 -191 247 -171V-123L267 -96V471Q231 478 226 478Q219 478 206 471Q169 478 145
478H91V492H253Q267 492 267 505V519H233Q220 519 220 532V613L267 640Q267 688 274 695Q289 695 301 688Q370 695 409 695H416Q429 695 429 708V722L395 728H314V1283Q314 1296 301 1296H51Q37 1296 37 1310V1391Q51 1408 51 1411V1438Q10 1438 10 1452V1627Q12
1641 24 1641ZM179 722H206Q220 720 220 708Q220 695 206 695H193Q179 695 179 708V722Z" />
<glyph unicode="2" glyph-name="two" horiz-adv-x="1416" d="M770 1644H876Q969 1644 1095 1598V1584H1088Q1070 1584 956 1578V1571Q1027 1571 1075 1564L1088 1571Q1217 1513 1307 1359Q1354 1267 1354 1080L1367 1073H1460Q1473 1071 1473 1060Q1467 1020 1453
1020H1413V994H1453V974H1354V961H1440L1453 954Q1417 831 1214 562Q1046 350 1029 350Q803 350 803 317H717V304H863Q876 301 876 290Q824 217 790 217Q743 217 717 171V164H1228Q1243 164 1254 158Q1266 164 1281 164H1380Q1394 162 1394 151V-168Q1394 -181
1380 -181H60Q45 -181 33 -174Q22 -181 7 -181H0Q0 -152 212 111L246 158V164H212L199 171Q199 220 312 231Q317 246 352 297H338Q304 297 226 304Q214 297 199 297L192 310L212 323Q219 323 219 317Q283 317 319 350H352Q372 350 372 343L405 350H491Q533 350
670 549Q794 693 975 954L962 961H816V974H975Q989 974 989 987Q949 996 949 1007Q949 1019 1009 1027V1073Q989 1073 962 1080Q926 1073 902 1073L896 1087V1140Q896 1203 796 1292V1299Q619 1299 591 1113L597 1080L584 1073H259Q222 1073 166 1080Q154 1073
139 1073L133 1087V1126Q133 1382 378 1544Q378 1551 398 1551V1564H292V1578Q358 1584 392 1584H478Q662 1644 770 1644ZM650 974H664V961H650V974ZM730 974H743V961H730V974ZM186 224L192 211Q186 211 146 164Q146 171 139 171Q151 201 186 224Z" />
<glyph unicode="3" glyph-name="three" horiz-adv-x="1365" d="M53 1641H1332V1614L1319 1594H1346Q1291 1454 1199 1454Q1040 1248 1026 1248Q980 1248 933 1168V1161Q959 1161 959 1141H1106Q1119 1139 1119 1128L1106 1121H939Q779 933 779 922Q964 922 1113
822Q1113 802 1126 802H1219Q1285 802 1392 588Q1419 452 1419 415V349Q1419 329 1312 329H1286V315L1319 309V282Q1248 31 1099 -58Q1076 -64 1073 -64V-84Q1075 -98 1086 -98Q1086 -91 1093 -91L1099 -104Q965 -191 779 -191H766Q520 -191 340 -91Q305 -91 233
-71H220V-64Q227 -52 227 -44Q53 114 53 235Q41 235 40 302V309Q0 309 0 322Q7 322 7 329Q130 335 187 335H460Q484 307 520 302Q571 182 673 182Q771 182 839 302Q806 311 806 322L819 329H826Q861 329 939 335L953 409Q953 582 779 635H413Q343 635 200 642L193
655Q225 679 300 788Q253 795 253 802L240 795L227 802L193 795V808Q245 808 340 955Q466 1112 466 1121Q473 1121 486 1115Q554 1121 593 1121H646V1135H580Q565 1135 553 1141Q540 1135 533 1135L520 1141Q508 1135 493 1135Q493 1155 466 1155V1168Q511 1255
573 1255L593 1281V1295H240Q173 1295 40 1301L33 1315Q33 1321 40 1321L33 1355Q33 1365 40 1448Q33 1448 33 1454Q93 1464 93 1481V1554L87 1588H40V1628Q42 1641 53 1641ZM333 1135H340V1121H333V1135ZM393 1135H406V1121H393V1135ZM113 815H127V802H113V815ZM187
-58H207V-71H187V-58Z" />
<glyph unicode="4" glyph-name="four" horiz-adv-x="1430" d="M818 1644H1375Q1388 1642 1388 1630V939Q1388 925 1375 925H1314V891Q1314 884 1307 884Q1314 871 1314 864Q1341 864 1341 871L1388 864H1483Q1493 864 1503 844Q1503 830 1490 830H1402L1368 823V694Q1368
681 1354 681H1253L1246 647V559Q1248 545 1259 545H1395V355Q1395 342 1368 342V315H1476Q1490 313 1490 301V206Q1490 193 1476 193H1409Q1393 193 1381 186Q1370 193 1354 193Q1345 193 1334 159Q1337 138 1368 111V50H1415Q1429 48 1429 37Q1429 27 1409 16H1293V3L1341
-24V-180Q1341 -194 1327 -194H1293Q1286 -194 1286 -187L1273 -194H1029Q971 -194 859 -187V-11L832 -4Q819 -11 812 -11V16H825Q861 16 941 23V37Q941 50 927 50L913 43Q884 43 880 125Q856 125 852 186L839 193H120Q83 193 25 199Q13 193 -2 193L-9 206Q45 296
45 301Q45 315 32 315H-56Q-70 315 -70 328Q-14 344 5 389Q117 627 167 681H249Q295 681 337 803L364 830H479Q493 830 493 844V857H486Q329 864 323 864Q323 871 317 871Q335 917 357 932H425Q552 1157 764 1563Q778 1605 818 1644ZM886 966V932H893Q907 932 907
945V966H886ZM771 871Q778 871 778 864L791 871Q803 864 818 864L825 878V925H818Q778 925 771 871ZM941 844V837H961Q976 837 988 830Q1000 837 1015 837V844Q1015 857 1002 857H954Q941 855 941 844ZM256 857H269V850Q269 841 249 830Q235 830 235 844L256 857ZM724
681H642Q595 681 540 545H771V674L778 688L812 681H839L886 688V823L852 830H839Q787 830 757 722Q731 681 724 681ZM757 23Q771 21 771 10V3Q771 -11 757 -11H751Q737 -11 737 3Q737 12 757 23Z" />
<glyph unicode="5" glyph-name="five" horiz-adv-x="1374" d="M377 1644H697Q733 1644 757 1637Q792 1644 824 1644H1084Q1116 1644 1151 1637Q1176 1644 1211 1644H1278Q1287 1644 1298 1624V1557Q1331 1557 1331 1544V1330Q1331 1318 1271 1310Q1271 1297 1258
1297H844L811 1290V1297L797 1290L784 1297Q777 1297 777 1290L744 1297H737Q715 1297 704 1290L664 1297H637Q615 1297 604 1290L564 1297H531L510 1164Q577 1164 577 1110Q571 1099 571 1083L584 1077H644Q657 1077 657 1043H751Q882 1063 938 1063Q1098 1063
1098 1030Q1320 928 1405 723Q1451 565 1451 503V483Q1451 470 1438 470H1391Q1391 436 1378 436H1338V416H1378Q1391 414 1391 403Q1385 363 1371 363L1378 336Q1363 203 1311 203Q1300 199 1238 89Q1285 89 1285 76V69Q1122 -122 911 -164Q859 -183 737 -191Q271
-191 17 56Q17 89 -23 89H-30V143Q-30 149 -23 149L-30 163Q-30 209 17 209V323Q17 396 37 396H143Q160 410 170 410Q184 410 317 416L324 403V396L277 390H217V376Q352 242 444 216Q444 183 644 176Q769 206 797 223Q891 295 891 349Q878 356 871 356Q864 356
851 349L811 356L771 349Q758 356 751 356V370H864L898 363L911 383V403L864 430Q864 443 918 450Q918 473 978 476Q978 575 851 683Q839 683 791 716H771Q653 716 510 596H490Q483 596 470 603L457 596Q411 596 304 670Q140 762 117 790Q143 1043 157 1043H230Q230
1051 237 1063L217 1077H157Q143 1077 143 1090V1150Q132 1157 117 1157H90V1164Q90 1317 123 1317Q170 1317 170 1330Q170 1437 190 1544Q177 1544 177 1557L164 1551Q150 1551 150 1564Q157 1623 164 1637Q307 1644 377 1644ZM43 1070H63Q77 1068 77 1057V1050Q42
1043 37 1043L30 1057Q32 1070 43 1070ZM564 1003V957Q627 984 651 1017V1043H584Q564 1037 564 1003ZM190 817V803H197V817H190Z" />
<glyph unicode="6" glyph-name="six" horiz-adv-x="1493" d="M1212 1647L1225 1640Q968 1289 931 1259L897 1265H884Q844 1261 844 1245V1239H958Q971 1236 971 1225Q897 1150 897 1125H984Q998 1123 998 1111L984 1105H924Q917 1105 917 1111L904 1105H824Q810
1103 810 1091V1085Q842 1085 1018 1038Q1171 1038 1379 783Q1467 620 1467 522Q1442 509 1413 509H1333V495H1406Q1418 495 1426 462Q1426 298 1319 107Q1182 -81 1071 -81Q1058 -74 1051 -74Q1038 -81 1031 -81V-87Q1038 -87 1051 -94Q1088 -87 1105 -87L1112
-101Q953 -194 730 -194Q494 -194 308 -94H208Q194 -94 194 -81Q199 -74 255 -74Q0 147 0 341Q22 341 34 348L27 395V415Q-20 415 -20 435V455Q-20 504 0 509H34Q81 723 167 823Q167 840 308 1031Q261 1040 261 1051Q308 1111 321 1111L335 1105L362 1111Q368 1111
368 1105L415 1111H489Q489 1125 476 1125H395Q382 1125 382 1138Q392 1139 455 1232L442 1239H335Q321 1239 321 1252Q325 1252 342 1265H415Q459 1303 703 1647H1212ZM281 1265L288 1252L268 1239L261 1252Q265 1252 281 1265ZM228 1259H234V1245H228V1259ZM455
495V422Q502 422 502 341H469Q469 254 630 160L710 147Q820 147 917 294Q946 353 964 462Q964 473 924 509Q998 515 998 529V535Q946 680 830 730Q808 743 790 743H763Q584 743 502 509Q455 509 455 495ZM737 515H757Q770 513 770 502V495H737V515ZM797 515H817Q830
513 830 502L817 495H797V515ZM871 515H884L917 509V495H871Q857 495 857 509L871 515ZM1011 422V408L1031 395V408Q1018 408 1018 422H1011Z" />
<glyph unicode="7" glyph-name="seven" horiz-adv-x="1405" d="M34 1641H1375V1390Q1375 1381 1395 1370H1476Q1490 1368 1490 1356Q1490 1343 1476 1343H1402Q1333 1228 1321 1228Q1266 1228 1266 1214H1314V1180H1382Q1395 1180 1402 1140Q1316 964 1294 964Q1277
964 1226 848Q1027 469 1016 469H880Q865 469 853 462Q841 469 826 469L792 462V449Q826 449 826 435L813 408Q819 408 819 401L833 408Q840 408 840 401L853 408H860Q867 408 867 401L880 408Q894 406 894 395L887 381Q968 374 968 361Q968 347 955 347H874Q626
-96 589 -195H162Q138 -195 101 -188Q89 -195 74 -195L67 -181L325 279Q358 347 372 347H426L460 354V361Q460 370 440 381H406L393 374Q384 408 372 408H365L332 401Q332 408 325 408Q325 401 318 401L311 415L325 435Q284 444 284 456Q286 469 298 469H487Q533
469 575 577Q777 947 799 964Q823 964 914 1153Q901 1153 901 1167Q907 1167 907 1174Q819 1174 819 1214L785 1207H779V1228H840Q846 1228 880 1289L867 1296H61Q47 1296 47 1309V1329Q49 1343 61 1343H122Q135 1343 135 1356Q113 1370 95 1370H34Q20 1370 20
1384V1627Q22 1641 34 1641ZM542 1228H616V1221Q616 1207 603 1207H542V1228Z" />
<glyph unicode="8" glyph-name="eight" horiz-adv-x="1405" d="M768 1644Q899 1644 1012 1585V1571H953V1558H1006Q1091 1558 1210 1367Q1250 1275 1250 1189V1182Q1250 1169 1237 1169H1177V1156H1336Q1349 1153 1349 1142V1109Q1349 1096 1336 1096Q1323 1103
1316 1103Q1303 1096 1296 1096V1083Q1291 961 1171 832V819Q1321 741 1395 535L1382 528H1250Q1237 526 1237 515H1309Q1355 515 1355 436Q1366 436 1382 410V304Q1384 291 1395 291H1415L1461 297L1474 278Q1474 271 1349 264Q1331 119 1171 -39L1085 -105Q1105
-105 1210 -112V-125H1131Q1107 -125 1072 -132Q1061 -125 1039 -125Q894 -191 709 -191Q505 -191 365 -138V-125H438V-119Q349 -112 306 -112Q123 -11 42 185Q25 271 9 271H-97Q-110 271 -110 284L-97 291H2L35 297V304Q35 335 29 370Q35 396 35 416Q19 416 15
443Q22 500 22 509H15Q-41 515 -77 515V528H75Q93 528 114 608Q215 774 319 819V832Q202 946 174 1096Q220 1105 220 1116V1142Q220 1156 207 1156H35V1169H101Q114 1169 128 1288Q189 1439 227 1439L220 1453Q241 1500 332 1552V1558H286V1571H319Q334 1571 345
1565Q525 1624 530 1624Q603 1644 768 1644ZM517 1169H445V1156H616Q629 1153 629 1142V1116Q629 1103 590 1096V1089Q590 1002 709 944Q734 938 761 938Q813 938 874 1023Q895 1109 940 1109Q946 1121 946 1136V1142Q946 1156 933 1156H761V1169H821Q834 1169
834 1182Q789 1327 682 1327Q592 1327 544 1208Q526 1169 517 1169ZM-18 1169H-11V1156H-18V1169ZM563 528H412Q398 526 398 515H484Q494 515 504 495Q491 495 491 429Q504 429 517 297Q481 284 385 284V278L418 271Q433 271 445 278Q524 278 544 231Q604 164 682
152Q774 152 860 271H966Q979 271 979 284V291H907L893 297Q907 357 913 416Q882 416 867 509H841L801 515Q788 509 781 509Q768 515 761 515V528H907Q907 579 794 641L748 647Q652 647 563 528ZM689 528H728V515H689V528ZM821 291L827 278L814 271L808 284L821
291Z" />
<glyph unicode="9" glyph-name="nine" horiz-adv-x="1587" d="M837 1641Q1014 1641 1205 1547Q1276 1544 1419 1380Q1419 1367 1486 1360Q1580 1199 1580 1139Q1570 1132 1539 1132L1546 1052V1012Q1546 999 1533 999Q1520 1005 1513 1005L1499 999Q1493 999 1493
1005L1446 999H1379V992Q1381 978 1392 978H1573L1600 932H1653V918H1580L1539 912Q1526 918 1519 918L1506 912Q1493 918 1486 918Q1446 720 1252 477L1044 182V175Q1084 175 1084 155H1125Q1138 153 1138 142V135Q1138 122 1125 122H1064Q1032 100 897 -99Q830
-193 823 -193H321Q308 -193 308 -179Q483 50 549 122H609Q619 122 629 142V155H582Q529 174 529 182L669 363V369H643Q544 369 328 477Q81 698 81 831L47 918H20V932H81Q102 912 114 912Q120 912 168 918V912L181 918H228V932H168Q154 932 154 945V978H-60V992L-53
1005L-40 999L-27 1005Q-19 1005 -6 999Q30 1005 54 1005H74Q81 1005 81 999Q111 999 121 1126L134 1132H268Q281 1132 281 1146Q261 1152 261 1159L248 1152Q212 1159 188 1159H181V1166Q210 1273 268 1353V1367L234 1360V1373Q329 1494 422 1534L415 1547V1554Q575
1641 837 1641ZM669 1159H750Q759 1159 770 1139L756 1132H603Q589 1132 576 1065V1019Q576 1007 516 999Q509 999 509 1005L475 999H402V985L469 978H603Q636 932 643 932H663L696 938L703 925L690 918H536Q522 916 522 905Q594 772 629 764Q690 704 777 704Q917
704 997 891Q997 912 1011 912Q1139 918 1185 918V932H1131L1104 978H910V992Q912 1005 924 1005H1064L1078 1012L1058 1126L1098 1139Q1062 1225 971 1280Q963 1280 904 1300H857Q735 1265 703 1213Q669 1177 669 1159ZM857 999H870V985H857V999ZM957 932H984V918H957V932Z"
/>
<glyph unicode=":" glyph-name="colon" horiz-adv-x="557" />
<glyph unicode=";" glyph-name="semicolon" horiz-adv-x="557" />
<glyph unicode="&lt;" glyph-name="less" horiz-adv-x="1014" />
<glyph unicode="=" glyph-name="equal" horiz-adv-x="1014" />
<glyph unicode="&gt;" glyph-name="greater" horiz-adv-x="1014" />
<glyph unicode="?" glyph-name="question" horiz-adv-x="1339" d="M771 1644H783Q981 1644 1041 1592Q1032 1586 1003 1586V1573Q1087 1543 1190 1418Q1287 1283 1287 1180Q1293 1180 1293 1160V1147L1287 1134L1241 1141H1132V1102H1229L1241 1096L1235 1083V1051H1280L1319
1018V999Q1293 867 1248 818Q1196 741 1132 741Q1102 714 951 638Q880 595 880 496V489Q882 476 893 476H951Q964 474 964 464Q964 449 919 438Q912 426 912 412L919 367L900 354H583L545 360L532 354Q522 360 493 360V431Q493 444 545 451V476H474Q461 476 461
489Q461 701 545 754Q559 754 635 818Q806 894 867 947Q906 999 906 1025Q874 1025 874 1051H835L822 1057L829 1089Q829 1102 816 1102H732Q719 1102 719 1115V1121Q721 1134 732 1134Q849 1141 880 1141L887 1154Q846 1231 835 1231Q808 1279 712 1315H661Q586
1309 519 1238L454 1141Q422 1141 409 1096H396L403 1051H442Q451 1051 461 1031L448 1025H132Q125 1025 125 1031L113 1025Q106 1025 106 1031L93 1025H87Q80 1025 80 1031L67 1025H61Q48 1025 48 1051H3Q-10 1051 -10 1063V1089L22 1134Q53 1134 67 1231Q77 1310
164 1438Q291 1562 383 1592H422Q624 1638 654 1638Q701 1644 771 1644ZM648 218H777Q871 218 932 109V102Q919 100 919 89L925 44Q913 38 906 38V12Q925 12 925 -1V-7Q925 -145 771 -188H642Q498 -188 448 -59Q448 10 403 18Q404 37 442 51Q446 109 493 109Q513
170 616 212L648 218ZM338 44Q351 42 351 31V25Q351 12 338 12Q325 12 325 25V31Q327 44 338 44Z" />
<glyph unicode="@" glyph-name="at" horiz-adv-x="2758" d="M88 1417H227Q383 1417 458 1302Q487 1302 495 1275Q509 1244 509 1210Q515 1217 532 1285Q560 1342 590 1342Q604 1342 604 1349Q580 1349 580 1359Q604 1386 655 1397Q697 1417 763 1417H770Q817 1417
865 1397V1393L861 1386Q921 1349 936 1349H953V1342H933Q987 1271 987 1230V1227H946V1224Q966 1224 970 1220Q976 1224 984 1224Q990 1224 990 1203Q1007 1203 1007 1210Q1007 1247 1034 1298Q1029 1302 1014 1302Q1022 1339 1075 1373H1079V1376H1045V1380Q1081
1416 1167 1417H1177Q1252 1417 1319 1380Q1379 1380 1404 1336Q1431 1314 1431 1295Q1360 1251 1343 1251H1330Q1273 1322 1221 1322Q1211 1322 1163 1305V1302Q1177 1302 1177 1295Q1134 1254 1126 1207Q1089 1203 1089 1196Q1129 1196 1129 1173Q1129 1139 1160
1091H1143Q1143 1073 1221 1054Q1323 1076 1323 1095Q1309 1095 1309 1098Q1313 1109 1330 1125H1343Q1408 1095 1425 1095Q1452 1088 1452 1081V1078Q1452 1074 1425 1064Q1414 1037 1381 1037Q1374 1036 1374 1030Q1394 1030 1394 1023Q1318 959 1245 959H1211Q1114
959 1038 1030H1014V1037H1031V1040Q1004 1076 1004 1085H1001Q1001 1074 994 1074H963Q956 1068 936 1068V1064H950V1057Q882 959 756 959Q625 959 546 1064H543V1068Q543 1074 576 1074Q549 1129 549 1166L556 1169H614V1176H553L539 1186H515V1193H526V1196Q526
1200 512 1207L505 1203H485Q485 1193 478 1193H461V1180H478Q485 1180 485 1169Q485 1134 454 1071H485V1064H451Q424 1034 420 1034H383L366 1030V1023H410V1017Q333 959 268 959H88Q81 959 81 966V1023H40Q34 1023 34 1030V1034H81V1057Q81 1064 115 1064V1068Q81
1070 81 1078V1173L57 1186Q83 1202 108 1207V1298Q81 1302 81 1308V1410Q82 1417 88 1417ZM1438 1417H1777Q1784 1417 1791 1383V1336Q1791 1329 1784 1329H1679V1271Q1669 1254 1642 1254L1666 1241Q1666 1227 1669 1213Q1663 1210 1655 1210V1112Q1655 1105
1645 1105V1101Q1672 1101 1672 1091V966Q1672 959 1666 959H1557Q1547 959 1547 1013V1095Q1530 1097 1530 1105V1207Q1530 1213 1550 1213V1220Q1540 1220 1540 1227V1247H1523V1254Q1535 1254 1550 1264H1554V1322Q1554 1329 1547 1329H1445Q1438 1329 1438
1336V1393L1431 1403V1410Q1432 1417 1438 1417ZM2012 1417H2018Q2066 1417 2113 1397V1393L2110 1386Q2169 1349 2185 1349H2202V1342H2181Q2235 1271 2235 1230V1227H2195V1224Q2214 1224 2218 1220Q2224 1224 2232 1224Q2239 1224 2242 1186H2263V1230Q2263
1237 2276 1237V1247H2259Q2256 1247 2242 1264L2252 1278V1386Q2252 1393 2263 1393V1410Q2264 1417 2269 1417H2456Q2551 1417 2551 1390Q2609 1349 2609 1278Q2605 1243 2605 1237H2612V1234Q2612 1190 2534 1149H2527L2544 1122V1115Q2537 1115 2537 1108H2500V1101H2541Q2582
1073 2582 1068Q2575 1067 2575 1061L2626 986Q2619 985 2619 979Q2629 976 2629 959H2500Q2488 965 2483 979L2490 983L2442 1061Q2449 1061 2449 1068Q2449 1080 2402 1101H2378V1010H2398V1003H2378V966Q2378 959 2371 959H2259Q2252 959 2252 966V996Q2253
1003 2259 1003H2276V1010H2259Q2252 1010 2252 1017V1085H2249Q2249 1074 2242 1074H2212Q2205 1068 2185 1068V1064H2198V1057Q2130 959 2005 959Q1873 959 1794 1064H1791V1068Q1791 1074 1825 1074Q1798 1129 1798 1166L1805 1169H1862V1176H1801L1788 1186H1764V1193H1774V1196Q1774
1203 1760 1203Q1788 1342 1839 1342Q1852 1342 1852 1349Q1828 1349 1828 1359Q1852 1386 1903 1397Q1946 1417 2012 1417ZM2378 1329V1278Q2378 1268 2364 1268V1258Q2378 1258 2378 1247H2402V1244Q2402 1237 2388 1237V1220H2446Q2470 1220 2503 1247Q2488
1247 2483 1251L2487 1258V1285Q2487 1313 2442 1329H2378ZM203 1319V1302H224Q230 1301 230 1295V1210Q200 1193 183 1193V1180H200L207 1176L203 1152V1112L207 1091Q203 1085 203 1081Q207 1075 207 1071H237V1064H207Q207 1057 203 1051L210 1047H234L312 1064H336V1068L319
1071H308V1078Q359 1114 359 1180H342Q336 1180 336 1186L366 1203H386V1207Q365 1302 312 1302Q264 1325 237 1325H210Q203 1324 203 1319ZM634 1207Q639 1207 644 1196Q638 1193 634 1193V1186H658L671 1176H729V1169Q726 1169 726 1173L719 1169H668Q668 1122
726 1081V1074H705Q701 1074 695 1064Q718 1064 753 1057Q764 1057 814 1074Q870 1074 892 1125Q901 1125 906 1176V1186H878Q868 1186 868 1220H811V1227H865Q826 1319 756 1319Q675 1319 638 1224L634 1207ZM1883 1207Q1888 1207 1893 1196Q1886 1193 1883 1193V1186H1906L1920
1176H1978V1169Q1974 1169 1974 1173L1967 1169H1917Q1917 1122 1974 1081V1074H1954Q1949 1074 1944 1064Q1967 1064 2001 1057Q2013 1057 2062 1074Q2118 1074 2140 1125Q2150 1125 2154 1176V1186H2127Q2117 1186 2117 1220H2059V1227H2113Q2075 1319 2005 1319Q1923
1319 1886 1224L1883 1207ZM74 1302Q81 1301 81 1295Q81 1288 74 1288Q68 1288 68 1295Q69 1302 74 1302ZM1499 1254H1506V1247H1499V1254ZM319 1203H329Q336 1202 336 1196L329 1193H319Q312 1193 312 1200L319 1203ZM990 1193Q991 1186 997 1186H1004V1193H990ZM44
1193Q51 1192 51 1186Q51 1180 44 1180Q37 1180 37 1186Q38 1193 44 1193ZM1062 1186V1183H1068V1186H1062ZM522 1176H539V1169H522V1176ZM1771 1176H1788V1169H1771V1176ZM719 1142H729V1139Q729 1132 722 1132L719 1139V1142ZM1967 1142H1978V1139Q1978 1132
1971 1132L1967 1139V1142ZM2378 1115V1108H2405Q2408 1108 2415 1118Q2408 1129 2408 1135H2395L2381 1115H2378ZM532 1125H536Q543 1124 543 1118L536 1115H532Q526 1115 526 1122L532 1125ZM1781 1125H1784Q1791 1124 1791 1118L1784 1115H1781Q1774 1115 1774
1122L1781 1125ZM1014 1118Q1014 1113 1007 1091H1028Q1018 1110 1018 1118H1014ZM2334 1108V1101H2368V1108H2334ZM1238 1095H1248Q1255 1094 1255 1088Q1235 1071 1221 1071H1214V1078Q1220 1078 1238 1095ZM420 867Q471 867 540 839V831H528Q571 803 620 743Q640
742 640 731Q597 696 520 667H512Q508 667 460 723L464 731Q446 743 388 751H372Q330 751 260 691H248V683H308V675H256Q236 621 236 595Q240 547 248 531L240 527H196Q240 451 280 451H308Q383 439 388 439Q460 451 488 479Q520 516 520 527H372Q364 527 364 535V583Q372
593 372 599L368 619H552Q586 619 660 623L672 603V599Q656 582 656 535V531H664V527Q664 471 612 443Q531 327 396 327H368Q227 327 132 451H84Q52 495 52 519Q53 527 60 527H104Q96 568 96 599Q96 667 116 675H160V683H108V691Q116 691 152 763Q210 835 268 835Q317
867 420 867ZM688 867H820Q825 867 840 835V799Q840 793 824 783H804V771Q828 771 828 763V559Q840 559 840 551V439Q841 431 848 431H1016Q1024 430 1024 423V363Q1024 355 1016 355H1012Q1008 355 1008 359Q1000 355 996 355V351Q1024 351 1024 343V335Q1024
327 1016 327H704Q699 327 688 355Q696 355 696 363V547L680 563V771H664V779Q672 779 696 791V835L680 851V859Q681 867 688 867ZM1060 867H1192Q1200 867 1200 843H1216Q1216 867 1224 867H1624Q1632 867 1640 827V767Q1685 815 1700 815V819H1660V823Q1703 866
1804 867H1816Q1905 867 1984 823Q2054 823 2084 771Q2116 746 2116 723Q2032 671 2012 671H1996Q1929 755 1868 755Q1856 755 1800 735V731Q1816 731 1816 723Q1766 675 1756 619Q1712 615 1712 607Q1760 607 1760 579Q1760 539 1796 483H1776Q1776 462 1868 439Q1988
464 1988 487Q1972 487 1972 491Q1976 504 1996 523H2012Q2088 487 2108 487Q2140 479 2140 471V467Q2140 462 2108 451Q2095 419 2056 419Q2048 418 2048 411Q2072 411 2072 403Q1982 327 1896 327H1856Q1742 327 1652 411H1624V419H1644V423Q1618 458 1608 479Q1612
483 1640 483Q1621 530 1608 591L1612 599V603H1580Q1572 603 1572 611Q1616 616 1616 623Q1616 667 1648 727Q1642 731 1624 731Q1624 744 1636 759V763H1508V695Q1497 675 1464 675L1492 659Q1492 643 1496 627Q1489 623 1480 623V507Q1480 499 1468 499V495Q1500
495 1500 483V335Q1500 327 1492 327H1364Q1352 327 1352 391V487Q1332 490 1332 499V619Q1332 627 1356 627V635Q1344 635 1344 643V667H1324V675Q1338 675 1356 687H1360V755Q1360 763 1352 763H1232Q1224 763 1224 771V835H1200V595H1220Q1228 594 1228 587Q1228
579 1220 579H1168V563H1208Q1216 562 1216 555V415Q1216 407 1200 407V343Q1216 343 1216 335Q1216 327 1208 327H1076Q1057 351 1052 351L1056 359V399L1036 419Q1037 427 1044 427H1048Q1056 427 1056 407H1068V563H1028Q1020 563 1020 571Q1021 579 1028 579H1080V587L1052
603V831Q1052 835 1048 835Q1052 867 1060 867ZM2160 867H2292Q2300 866 2300 859V719Q2300 711 2292 711H2272V703Q2273 695 2280 695H2300V691L2296 683Q2312 678 2312 647H2504V671Q2488 683 2488 695H2432Q2424 695 2424 703L2432 707H2488V859Q2489 867 2496
867H2624Q2632 866 2632 859V711H2612L2588 707Q2581 711 2568 711V695H2632Q2632 680 2648 671V535H2668Q2676 534 2676 527V523Q2676 515 2668 515H2648V475Q2648 467 2632 467V327H2496Q2488 327 2488 335V463Q2488 471 2504 471V507L2528 523V527Q2528 532
2496 543H2312V471H2344Q2352 470 2352 463Q2352 455 2344 455H2292Q2284 454 2284 447V335Q2284 327 2276 327H2148Q2140 327 2140 335V447Q2141 455 2148 455H2196Q2204 455 2204 463V471H2172Q2164 471 2164 479V671Q2152 684 2152 695H2132Q2124 695 2124 703Q2152
708 2152 715V823Q2152 827 2156 827L2152 835V859Q2153 867 2160 867ZM1068 843V835H1076V843H1068ZM80 691H84V683H80V691ZM1296 675H1304V667H1296V675ZM336 623H344Q352 622 352 615V611H336Q328 611 328 619L336 623ZM308 619H316V611H308V619ZM1680 595V591H1688V595H1680ZM2468
535H2480Q2488 534 2488 527Q2488 519 2480 519H2468Q2460 519 2460 527Q2461 535 2468 535ZM1888 487H1900Q1908 486 1908 479Q1885 459 1868 459H1860V467Q1867 467 1888 487ZM94 280H149Q153 280 166 242Q169 242 169 239L166 225Q179 175 186 164L179 154H186L200
164Q200 167 196 167Q210 236 224 236V239Q224 246 217 246Q226 280 234 280H285Q290 280 302 242H306V236Q306 232 302 232Q319 172 326 164L319 154H323Q337 154 347 215Q364 280 371 280H425L432 277Q418 223 401 167Q405 167 405 164Q390 154 377 154V150Q393
143 401 143V140Q401 138 394 130Q394 128 398 116Q381 52 367 41H306Q300 41 282 120L271 143L251 147V154Q260 154 268 161L265 167Q268 186 268 195L261 198Q258 173 254 167Q258 167 258 164Q245 154 231 154V150Q246 143 254 143V137H248Q248 125 251 120Q234
41 227 41H162Q156 41 135 123Q130 123 125 143L104 147V154L121 161Q111 173 97 232Q104 232 104 239Q92 239 87 277L94 280ZM545 280Q581 280 620 246Q657 220 657 161Q664 164 668 164Q668 171 661 171Q673 239 705 239V242H698V249Q698 267 794 280Q834 280
886 232Q907 195 907 178V164H910Q930 167 930 174V212Q930 219 917 219V273Q918 280 924 280H982Q1071 280 1111 219Q1139 210 1139 171H1142Q1152 211 1152 219Q1146 219 1146 225Q1168 253 1176 253V256H1166V260Q1182 280 1227 280Q1255 280 1313 260Q1332
260 1361 222V215Q1361 206 1313 191Q1275 229 1255 229Q1229 222 1227 222L1231 215Q1210 194 1204 167H1187V164Q1209 164 1214 123Q1217 123 1217 109H1214V106Q1244 92 1251 92Q1303 100 1303 109Q1299 116 1299 120Q1310 130 1316 130Q1350 113 1374 106Q1374
113 1388 113Q1381 135 1381 143L1388 147L1385 164Q1385 172 1388 178Q1388 184 1367 201Q1369 208 1374 208L1371 225V273Q1372 280 1378 280H1429Q1436 279 1436 273V219Q1436 215 1439 215L1432 198Q1449 194 1449 188V157Q1449 142 1443 130Q1448 130 1453
120V116Q1453 109 1443 109Q1456 89 1477 89Q1485 89 1528 120V191Q1517 191 1511 195L1514 219V273Q1515 280 1521 280H2057Q2064 279 2064 273V246H2071Q2072 275 2084 280H2170Q2252 275 2252 222Q2255 222 2255 208V184Q2243 140 2214 140Q2221 129 2221 120H2201V116Q2230
116 2242 99Q2242 96 2238 96Q2265 53 2265 44L2259 41H2201Q2196 41 2190 51L2194 58Q2174 76 2166 106Q2161 106 2149 116L2153 123V126Q2153 133 2146 133H2143Q2143 123 2136 123Q2136 120 2139 120L2136 102V72Q2136 68 2139 68Q2136 41 2129 41H2078Q2071
41 2071 48V58Q2071 65 2081 65V68Q2076 68 2067 75H2064V48Q2064 41 2057 41H1914Q1907 41 1907 48V68H1897V75H1921V79H1910L1914 96Q1908 96 1904 130L1907 137V161L1900 171L1907 174Q1908 167 1914 167H1927V222Q1917 222 1917 232H1866V205Q1866 195 1849
195V191Q1859 191 1863 174Q1856 171 1852 171V116Q1863 116 1863 109V48Q1863 41 1856 41H1805Q1798 41 1798 48V113H1784L1787 130V167Q1787 174 1798 174Q1791 188 1791 195Q1796 195 1801 205V232H1702V205Q1702 195 1685 195V191Q1695 191 1699 174Q1692 173
1692 167V123L1688 116Q1699 116 1699 109V48Q1699 41 1692 41H1641Q1634 41 1634 48V113H1624L1627 130V167Q1628 174 1634 174L1627 195Q1632 195 1637 205V232H1579V219Q1579 215 1583 215L1572 198Q1593 194 1593 188V116Q1577 107 1562 75Q1533 41 1487 41Q1398
41 1374 102Q1369 102 1344 82H1333V79H1340V75Q1309 41 1258 41H1255Q1179 41 1142 102V113H1152Q1142 157 1135 157Q1130 161 1118 161H1111V157Q1125 157 1125 150Q1113 89 1098 89Q1098 79 1064 79V75H1084V68Q1042 41 1006 41H924Q917 41 917 48V75H893V82H917Q917
96 927 96V99Q917 99 917 109H913Q913 98 886 96Q857 41 790 41Q713 41 678 99V102H691Q681 133 681 143Q681 150 712 150V154Q678 154 678 150Q672 99 647 99Q643 99 606 61Q578 41 538 41Q465 41 429 99V102Q442 102 442 106Q435 117 429 147Q429 150 463 150V154Q436
154 415 157V161L418 167Q411 167 411 174Q425 239 452 239H456V242H449V249Q483 280 545 280ZM2361 280H2501Q2508 279 2508 273V246Q2522 246 2522 239L2511 232H2426V229L2440 215V184H2515V164H2498V143Q2498 137 2491 137H2429L2412 133Q2417 129 2422 92L2429
89H2501Q2503 89 2511 82Q2508 41 2501 41H2361Q2354 41 2354 48V68H2344Q2344 41 2317 41H2306Q2279 41 2279 75Q2300 96 2313 96H2320Q2344 96 2344 75H2368V79Q2354 79 2354 85Q2361 85 2361 92Q2355 100 2351 130L2354 137V161L2347 171L2364 167H2375V222Q2361
222 2361 229V232L2368 242Q2354 242 2354 249V273Q2355 280 2361 280ZM2597 280H2603Q2679 267 2679 246Q2653 212 2634 212Q2613 232 2600 232Q2586 227 2586 222V208Q2599 208 2624 188Q2689 164 2689 150Q2682 149 2682 143Q2699 142 2699 133V130L2685 89Q2685
80 2679 72H2689V68Q2675 41 2617 41Q2582 41 2539 72Q2520 72 2515 89V92Q2517 100 2569 123Q2584 92 2603 92H2614Q2619 92 2627 106V109L2624 126Q2627 126 2627 130Q2535 154 2535 198Q2539 198 2539 201Q2522 209 2522 219Q2538 280 2597 280ZM91 242V236H84Q85
242 91 242ZM1982 232V222Q1992 222 1992 215V184H2064Q2071 183 2071 178V171Q2071 164 2050 164V143Q2050 137 2044 137H1989L1965 133V130Q1979 130 1979 89H2057Q2064 89 2064 79H2071V113L2067 120Q2074 123 2078 123V174L2081 191Q2073 191 2067 195L2071
219V232H1982ZM2136 232V208L2129 198Q2146 190 2146 188Q2143 181 2143 178H2180Q2197 187 2197 191Q2191 191 2187 222Q2174 232 2163 232H2136ZM982 229V219Q995 219 995 212V174Q995 167 968 161V157Q982 157 982 150V102Q982 99 985 99L982 92V89H1002Q1026
96 1043 96V99H1036V102Q1060 134 1060 154H1050V164L1074 167Q1074 214 1006 229H982ZM476 174V161Q489 161 497 154L493 147Q493 130 521 102Q514 99 510 99V96L541 92Q541 99 589 106Q613 129 613 154V157Q596 157 596 174H569V181H592V184Q570 225 541 225H534Q476
213 476 174ZM726 171Q726 164 746 154L743 147Q743 130 770 102Q763 99 760 99V96Q772 96 790 92Q790 99 838 106Q863 129 866 157Q845 157 845 174H818V181H842V184Q822 225 790 225H784Q726 213 726 171ZM1040 167H1047V161H1040V167ZM166 154V150H176V154H166ZM306
154V150H312V154H306ZM176 147V143H186V147H176ZM319 147V143H326V147H319ZM193 137V130Q194 123 200 123Q200 136 207 143H200Q193 142 193 137ZM333 133Q336 127 336 123H340Q340 132 347 143H340Q333 143 333 133ZM422 130H425V123H422V130ZM2115 120V116H2129V120H2115ZM1265
113H1268V109Q1268 104 1258 99H1251V106Q1257 106 1265 113ZM2030 75V72H2044V75H2030ZM2477 75V72H2487V75H2477Z" />
<glyph unicode="A" glyph-name="A" horiz-adv-x="1351" d="M519 1643H918Q930 1641 1027 1359L1047 1346H1115Q1133 1332 1277 912L1325 777L1311 770H1155V763Q1155 727 1196 723L1237 729H1243Q1272 714 1433 215L1419 208Q1396 215 1392 215Q1386 215 1386
208L1338 215H1304Q1291 213 1291 201Q1327 93 1338 93H1474Q1487 91 1487 79V73Q1487 59 1474 59H1325Q1309 59 1298 66Q1286 59 1270 59H1128L1081 66L1074 52Q1076 39 1088 39H1494Q1514 39 1582 -185V-192H1074Q1063 -192 993 39H634Q619 39 607 45Q595 39
580 39Q566 39 566 52Q573 52 573 59Q698 66 756 66H973Q986 66 986 79L966 93H830Q822 93 790 154H736V147Q736 141 742 93H681Q674 93 634 154H241Q202 154 194 100L207 93H322Q336 91 336 79V73L248 -192H-267V-185L-172 86L-375 93Q-389 93 -389 106Q-355 215
-341 215H-158Q-109 215 -91 330Q-79 331 -23 499L52 716V723H-16Q-30 786 -21 767Q-30 777 160 777Q170 779 268 1054L363 1332V1339H329V1346Q380 1519 438 1637L519 1643ZM736 1054Q663 770 634 770H478Q465 770 458 729H499Q539 725 539 709Q471 500 471 492L505
486L553 492Q566 486 573 486L614 492Q620 492 620 486L654 492H769Q776 492 776 486Q844 492 844 506V513Q819 558 783 689Q783 724 722 729Q722 746 708 763Q711 777 722 777H837Q803 901 749 1054H736Z" />
<glyph unicode="B" glyph-name="B" horiz-adv-x="1584" d="M297 1644H900Q1274 1644 1428 1380Q1410 1375 1346 1367Q1376 1305 1400 1191H1468Q1482 1191 1482 1171H1563Q1576 1168 1576 1157V1130Q1576 1116 1563 1116Q1556 1116 1556 1123Q1549 1123 1549 1116L1516
1123H1488Q1488 872 1279 744V731Q1549 612 1549 311V257H1556Q1565 257 1624 264L1631 250Q1626 162 1604 162H1576Q1561 162 1549 169Q1526 169 1488 47L1434 -7L1387 0H1367Q1182 -190 988 -190H-7Q-21 -190 -21 -176V-14Q-19 0 -7 0H60Q74 0 74 13V27Q74 47
67 47L74 81V480Q74 494 60 494H20Q-38 494 -163 501L-170 514V521L-163 534Q-38 541 20 541H67L74 575V1076L67 1116Q74 1128 74 1150V1171Q74 1179 26 1204V1360Q26 1369 67 1380Q74 1394 74 1401Q74 1422 67 1529Q74 1631 81 1638Q226 1644 297 1644ZM-82 1367H-68V1198H-82V1367ZM-34
1367H-21V1198H-34V1367ZM595 1279H473V1204Q475 1191 487 1191H548Q551 1191 568 1177L561 1130V907Q563 893 575 893H845Q994 953 994 1069V1123H1076V1130Q1076 1159 1048 1171L1035 1164Q1028 1164 1028 1171L1015 1164H981Q957 1191 933 1191H879Q798 1279
751 1279H615Q609 1279 609 1286L595 1279ZM568 555V534H642Q743 534 913 541Q909 561 859 561H751Q693 561 568 555ZM324 534Q324 521 318 521Q324 508 324 501H548V521L500 534H324ZM1055 534V507L1062 494L1109 501H1285Q1299 501 1299 514V521Q1299 534 1285
534H1055ZM-217 534Q-204 532 -204 521V514Q-204 501 -217 501Q-231 501 -231 514V521Q-229 534 -217 534ZM609 494H568L561 446Q561 426 568 426L561 392V358Q561 300 568 237Q561 211 561 176L575 169H988Q1043 169 1109 250Q1028 257 1028 270Q1051 270 1062
399Q1008 494 1001 494Q951 494 669 501L622 494V501L609 494Z" />
<glyph unicode="C" glyph-name="C" horiz-adv-x="1784" d="M690 1644Q697 1644 697 1637L723 1644Q1041 1644 1266 1492Q1504 1492 1504 1439Q1653 1319 1735 1181V1141L1490 1016Q1422 976 1391 976H1325Q1176 1184 1054 1214Q1014 1233 928 1260Q811 1260 657
1181V1174Q730 1174 730 1161Q551 1000 551 910Q530 885 512 778H379Q366 776 366 764Q366 755 386 745H498Q508 745 531 579Q565 445 670 341L657 335H584V321Q672 235 875 189Q950 189 1094 249Q1227 249 1299 335H1305V348H1239V354Q1264 399 1325 473H1404Q1418
473 1636 354Q1775 354 1828 295V288Q1801 259 1801 255L1755 262Q1712 262 1636 130Q1607 116 1530 116H1517Q1507 116 1497 97H1583V77Q1372 -119 1226 -142Q1121 -194 988 -194H849Q488 -194 207 63Q179 97 108 97Q85 90 82 90Q55 100 55 110Q57 123 69 123Q76
123 88 116L128 123H141V130Q22 293 22 328V335H88L121 341Q44 517 35 698H-50V718H22Q35 718 35 731Q35 745 22 745H-97Q-110 745 -110 758V778Q-80 778 -70 784L-57 778Q42 778 42 804Q55 991 148 1155V1161Q148 1174 135 1174H69L55 1181Q174 1391 326 1472Q326
1485 313 1485H181V1492Q258 1561 459 1618Q566 1637 651 1637H664Q679 1637 690 1644ZM260 718V698H280Q293 698 293 712L280 718H260ZM961 348H1021Q1034 346 1034 335Q951 262 915 262H862V275Q887 275 961 348Z" />
<glyph unicode="D" glyph-name="D" horiz-adv-x="1767" d="M254 1644H640Q1053 1644 1285 1454Q1455 1315 1536 1176H1631Q1753 968 1753 817V803Q1753 800 1739 783L1705 789H1651V756Q1651 742 1637 742H1563V688H1637Q1651 686 1651 674V661Q1651 513 1536
274Q1522 272 1522 260V254H1651Q1664 252 1664 240Q1642 227 1624 227H1508L1407 104H1278Q1176 104 1176 71V64H1352Q1366 62 1366 50Q1355 50 1285 -11Q1029 -194 790 -194H43V50Q43 64 30 64H16Q-160 64 -160 84V91Q-158 104 -146 104H30Q43 104 43 118V227Q88
227 179 233V247Q87 254 50 254L43 267V667Q43 677 23 688H-38Q-51 688 -51 701V728Q-51 744 3 749L16 742L64 783Q152 783 152 803V1162Q152 1178 43 1190V1624L50 1637Q186 1644 254 1644ZM532 1264V1190Q534 1176 545 1176H627Q640 1174 640 1162V803Q640 798
620 783L586 789H545L518 742H457Q444 740 444 728V688H518Q524 688 539 667L532 633V369Q532 354 539 342Q532 330 532 315V288L539 254H620Q635 254 647 247Q659 254 674 254L681 240L654 227Q640 227 640 233L593 227H539L532 193V179Q534 165 545 165H688Q754
165 905 227Q1007 233 1054 233L1061 247Q993 254 959 254H946V267Q1071 358 1129 532L1163 674L1142 688H1081Q1068 688 1068 701V728Q1068 738 1088 749Q1095 749 1095 742Q1158 742 1176 783H1217L1264 789V803Q1239 1003 1068 1169Q919 1181 884 1217Q775 1278
701 1278H545Q532 1276 532 1264ZM10 1176H23Q37 1174 37 1162V1149Q37 1137 3 1129L-4 1142V1162Q-2 1176 10 1176ZM973 783H1047Q1061 781 1061 769V762Q1061 749 1047 749H986Q973 749 973 762V783ZM-113 749H-99Q-85 747 -85 735V701Q-85 688 -99 688H-126V735Q-124
749 -113 749Z" />
<glyph unicode="E" glyph-name="E" horiz-adv-x="1248" d="M228 1644H1190Q1199 1644 1210 1624V1393Q1210 1384 1230 1373H1257Q1273 1373 1285 1380Q1318 1371 1318 1360V1346Q1318 1333 1305 1333H1271V1299Q1271 1285 1257 1285H790Q719 1285 574 1278V1217Q576
1204 587 1204H648Q662 1202 662 1190V899H1251Q1264 897 1264 886V784Q1264 771 1190 764L1176 771L1136 764Q1122 771 1115 771L1108 737V622L1115 554L1095 540H519Q519 517 472 513L431 520H418Q404 518 404 506V500H445L513 493V269Q513 233 553 229Q553 214
560 202Q553 190 553 175V168H1197Q1210 168 1217 100H1318Q1332 98 1332 87Q1332 73 1318 73H1244L1210 66V-191H100Q93 -191 93 -184L79 -191H39Q29 -191 18 -171V-157Q18 -150 25 -150L18 -137V26L-16 32H-76Q-90 32 -90 46V60Q-88 73 -76 73Q37 80 100 80H127V93L59
100H32Q18 100 18 120L25 134Q18 146 18 161Q18 170 59 181Q66 193 66 209Q66 238 18 242V473L25 486L12 493H-76Q-90 493 -90 506Q-88 520 -76 520H5Q18 520 18 534V757Q18 771 39 771Q60 771 167 777V1190Q167 1211 93 1211H79V1319L127 1346V1360Q127 1373 113
1373H32Q18 1373 18 1387V1624L25 1637Q161 1644 228 1644ZM-29 831H5Q18 829 18 818V784Q18 771 5 771H-29Q-43 771 -43 784V818Q-40 831 -29 831ZM215 80H276V93H228Q215 91 215 80ZM946 73V46Q948 32 960 32H1054Q1054 40 1061 53Q1054 66 1054 73H946Z" />
<glyph unicode="F" glyph-name="F" horiz-adv-x="1160" d="M267 1641H1225Q1239 1639 1239 1627V1294L1225 1274L1178 1281Q589 1274 539 1274V1240Q539 1226 525 1226H403Q389 1224 389 1213V1172Q391 1158 403 1158H410Q430 1158 430 1165Q505 1158 518 1145H668Q682
1143 682 1131V1124Q620 1118 566 1118H505V907Q507 893 518 893H1219Q1232 891 1232 880V554Q1232 544 1212 533H648Q638 533 627 513V289L634 255H702Q716 252 716 241V159Q716 146 702 146H634Q634 139 627 125V-24L634 -58H831Q845 -60 845 -72V-78Q845 -92
824 -92Q771 -92 634 -99Q634 -106 627 -106L634 -153V-187Q634 -201 620 -201H151Q138 -201 138 -187V-106Q140 -92 151 -92H308Q343 -85 349 -85V-65L172 -58H151Q138 -58 138 -45V139Q140 153 151 153H219V241Q219 255 138 261V887Q124 887 124 893Q117 893
117 887L70 893H22Q9 893 9 907V1104Q11 1118 22 1118Q146 1124 185 1124Q185 1138 165 1138Q68 1138 -32 1158H-100V1213Q-98 1226 -86 1226H-46Q-39 1226 -39 1220Q-27 1225 43 1233V1621L50 1634Q196 1641 267 1641ZM43 248L50 234V166Q50 153 36 153L29 166V234Q31
248 43 248ZM90 248H104Q117 246 117 234V207Q117 200 111 200L117 187V166Q117 153 104 153H90Q77 153 77 166V234Q79 248 90 248Z" />
<glyph unicode="G" glyph-name="G" horiz-adv-x="2009" d="M1124 1639Q1358 1639 1557 1527V1521Q1522 1521 1498 1514V1508Q1646 1438 1806 1219Q1870 1219 1885 1180Q1885 1171 1846 1160Q1846 1130 1629 1035Q1531 970 1491 970H1439L1314 1120Q1266 1145 1262
1160V1166H1288V1180Q1279 1180 1203 1219H1176Q1115 1219 1078 1245H973Q958 1245 947 1239L934 1245Q707 1174 638 1061Q622 1042 553 1035V1029Q555 1015 566 1015Q579 1015 579 1022L645 1015H763V1009Q763 996 750 996H592Q553 970 514 773V720Q514 640 553
510L540 504H474L435 497Q422 504 415 504L402 497Q389 504 382 504V497Q426 372 559 287Q624 241 651 241H815Q969 195 1039 195Q1175 241 1209 241Q1222 234 1229 234Q1378 334 1386 359Q1424 386 1491 497V504H966Q953 504 953 517V700Q986 720 986 733L980
746Q986 758 986 773Q953 781 953 792Q966 809 966 812Q980 812 980 805Q1057 812 1091 812H1774Q1788 812 1800 805Q1811 812 1826 812H1944L1984 766V727Q1951 709 1944 641Q1938 545 1938 510Q1971 510 1971 497V490Q1896 234 1839 234Q1828 241 1813 241Q1659
-37 1262 -166Q1151 -186 1098 -186H973Q469 -186 179 241H2Q-31 259 -110 464V504H67L41 714V746Q70 996 93 996Q220 1002 258 1002V1015H251Q182 1015 41 1022Q41 1032 107 1048Q234 1367 500 1514Q604 1514 678 1560Q854 1639 1124 1639ZM-12 1042H8V1022Q-15
1015 -18 1015L-25 1029Q-23 1042 -12 1042ZM855 812Q920 807 920 792Q920 779 907 779H848Q835 779 835 792Q835 802 855 812ZM769 805H783Q796 803 796 792V779H769Q756 779 756 792Q758 805 769 805Z" />
<glyph unicode="H" glyph-name="H" horiz-adv-x="1801" d="M175 1641L222 1634H498Q513 1634 524 1641Q565 1632 565 1621V1117Q565 1103 551 1103H484Q471 1101 471 1090V1083Q471 1070 524 1063Q536 1070 551 1070Q565 1053 565 1043L558 1029Q558 1014 598
1002Q598 908 625 908Q679 908 679 902L713 908H1257Q1264 932 1264 935Q1264 942 1257 955L1264 989Q1257 1002 1257 1009H1223Q1210 1009 1210 1023V1063H1002Q988 1063 988 1076V1097Q1112 1103 1170 1103H1197Q1210 1103 1210 1117V1621Q1212 1634 1223 1634H1694V1144L1701
1110L1687 1103H1586L1546 1097Q1535 1103 1513 1103H1486Q1472 1101 1472 1090V1083Q1474 1070 1486 1070Q1610 1063 1694 1063Q1694 1056 1701 1056L1694 1023Q1694 1009 1748 1002V532L1754 519L1768 525H1795Q1835 521 1835 505V471Q1835 462 1815 451Q1791
458 1788 458L1748 451V303Q1748 287 1694 277V-127L1701 -174L1681 -187H1398Q1341 -187 1217 -181L1210 -167V277Q1212 290 1223 290H1257L1264 337Q1264 352 1257 364Q1266 446 1271 458L1284 451H1324Q1334 451 1344 471V505Q1344 519 1264 525L1250 552L1237
545H1089Q1065 545 1029 552Q1017 545 1002 545L988 552Q976 545 961 545Q955 545 955 552L941 545H753L713 552Q702 545 679 545H619Q605 543 605 532V303Q607 290 619 290H659Q674 290 686 297Q740 290 740 277V270Q740 256 726 256H551L518 250V-174Q518 -187
504 -187H215Q158 -187 34 -181L27 -167V-80Q27 -73 34 -73L27 -60V243Q29 256 40 256H47Q67 256 67 250L101 256H215L249 263V277Q249 290 235 290H128Q114 290 114 303V996L74 1023Q74 1063 61 1063H-7Q-20 1063 -20 1076V1083Q-18 1097 -7 1097H54Q64 1097 74
1117V1486Q74 1502 81 1513Q74 1525 74 1540V1621Q76 1634 88 1634H148Q175 1634 175 1641ZM1123 519H1183Q1197 516 1197 505V471Q1197 458 1183 458Q1109 458 1109 478H1116L1109 492V505Q1111 519 1123 519Z" />
<glyph unicode="I" glyph-name="I" horiz-adv-x="657" d="M55 1641H522Q536 1641 543 1567H617Q631 1564 631 1553L610 1539Q587 1546 583 1546Q571 1539 556 1539V1546Q543 1539 536 1539V740Q536 724 590 720Q602 727 617 727Q617 724 631 707V686Q631 677 610
666H570Q549 666 549 673L516 666H448Q434 664 434 652V625Q436 612 448 612H590V138Q590 123 597 111Q586 77 556 77Q556 84 549 84L543 70V-126Q545 -140 556 -140Q568 -133 583 -133Q597 -158 597 -187L583 -194H285Q228 -194 103 -187V-147L55 -120Q55 -113
48 -113L55 -65V-25Q55 -9 48 2Q55 14 55 29V63Q55 76 -6 97Q-13 110 -13 117Q-2 145 8 145H35Q47 145 55 84H89Q103 84 103 97V598Q103 612 89 612Q-30 619 -53 619L-60 632V652Q-60 662 -40 673Q-33 673 -33 666L-19 673H123Q136 673 136 686V707L123 727L75
720H62Q52 720 42 740V1526L48 1539Q38 1546 8 1546V1560H42V1627Q44 1641 55 1641ZM89 1553Q91 1539 103 1539H116Q130 1539 130 1553Q130 1567 116 1567H103Q89 1564 89 1553Z" />
<glyph unicode="J" glyph-name="J" horiz-adv-x="1299" d="M409 1644H1241Q1255 1642 1255 1631V1496Q1255 1483 1201 1476V1389Q1201 1369 1208 1369L1201 1335V758Q1201 718 1248 718Q1255 708 1255 678H1342V597Q1342 584 1329 584H1275L1261 590L1255 577V288Q1255
166 1181 20L1194 13Q1201 13 1214 20Q1260 13 1288 13H1329Q1342 11 1342 0V-7Q1330 -14 1141 -20Q1141 -27 1074 -87V-94Q1089 -94 1100 -87Q1110 -94 1141 -94V-107Q970 -195 845 -195H631Q476 -195 268 -94H194Q133 -43 121 -20L134 -14H268Q282 -14 282 0Q260
13 241 13H101Q20 101 20 194Q92 220 322 268Q344 278 496 315Q534 161 671 161Q765 257 765 342V584H812Q847 584 852 604V664Q852 678 839 678H778Q765 678 765 718H731Q718 718 718 731V1275Q718 1288 704 1288H356Q342 1288 342 1302V1470Q344 1483 356 1483H389V1624Q389
1634 409 1644ZM342 718H356Q369 716 369 705V691Q369 678 356 678H342Q329 678 329 691V705Q331 718 342 718ZM463 718Q470 718 483 711L523 718L530 705V691Q530 678 517 678H456Q443 678 443 691V705Q443 718 463 718ZM611 718L658 711H664L678 718L684 705V678H617Q604
678 604 691V705L611 718Z" />
<glyph unicode="K" glyph-name="K" horiz-adv-x="1764" d="M438 1637T450 1644Q524 1637 524 1624V1232H599Q612 1230 612 1218V1090L619 1056Q707 1056 707 1124Q700 1137 700 1144L707 1157Q700 1169 700 1184Q741 1203 741 1232H680Q666 1232 666 1245Q678
1245 1038 1637Q1591 1637 1606 1637H1633V1630Q1547 1533 1261 1238V1232H1329V1218Q1329 1209 1167 1056H1085L1052 1049V1056L1038 1049H984V1036H1126Q1140 1034 1140 1022Q1134 1021 950 826V819Q1030 720 1248 475Q1231 461 1221 461Q1221 429 1295 421L1315
394V380H1254V360Q1288 360 1288 353L1322 360H1396Q1448 360 1457 333L1450 319L1417 326Q1392 326 1356 319Q1343 326 1336 326L1322 319Q1309 326 1302 326L1295 313Q1387 220 1572 -12Q1586 -12 1673 -120V-127L1667 -140Q1673 -153 1673 -161H1707Q1717 -161
1728 -181Q1728 -194 1714 -194H1309Q1241 -194 1106 -188Q1087 -154 1045 -154V-140Q1058 -123 1058 -120V-113Q1043 -113 856 130L707 313Q709 326 720 326L748 319Q761 326 768 326V319L781 326H856Q869 326 869 340Q853 353 842 353Q799 353 666 360L653 380Q660
380 660 387Q673 380 680 380L693 387Q705 380 720 380H734V387Q734 400 700 427L687 421Q653 429 653 441V448L707 488Q714 501 714 509Q701 539 687 542H680Q671 542 599 461Q572 461 572 448V441L612 414Q619 401 619 394Q602 380 599 380H538Q524 378 524 367V-181Q524
-194 511 -194H241Q173 -194 38 -188L31 -174V367Q33 380 45 380H119L126 414V421Q78 421 78 441V448Q78 468 126 468V502Q126 509 132 509L126 522V1015Q126 1029 105 1029Q-30 1036 -43 1036L-50 1049L-36 1056Q86 1063 126 1063V1198L119 1232H45Q31 1232 31
1245V1624Q33 1637 45 1637H72Q438 1637 450 1644ZM443 1049V1036H477V1042L470 1056Q459 1049 443 1049ZM612 1015Q614 1002 626 1002L633 1015V1029H626Q612 1027 612 1015ZM24 468H38Q51 466 51 454V441Q51 431 31 421Q21 421 11 441V454Q13 468 24 468ZM876
-134H930Q941 -134 957 -161H883Q873 -161 862 -140L876 -134Z" />
<glyph unicode="L" glyph-name="L" horiz-adv-x="1240" d="M35 1644H504Q517 1644 524 1562Q558 1562 558 1549V1406L504 1365H443Q429 1363 429 1352V1338H504Q517 1336 517 1325V618L511 605Q558 595 558 584V177Q560 163 572 163Q585 163 585 170L653 163H1163L1176
156L1170 122V-82Q1170 -95 1156 -95L1115 -88Q1104 -95 1081 -95V-109Q1086 -109 1122 -115L1163 -109L1170 -122V-183Q1170 -197 1156 -197H252Q195 -197 69 -190V-129Q69 -119 49 -109H-12V-95H49Q58 -95 69 -75V577Q22 603 22 611V1325Q22 1338 -60 1345V1352Q3
1354 49 1393Q69 1393 69 1406V1529Q69 1569 22 1569V1630Q24 1644 35 1644Z" />
<glyph unicode="M" glyph-name="M" horiz-adv-x="1949" d="M131 1644Q168 1637 192 1637H409Q424 1637 436 1644Q524 1644 524 1583L652 1252H713V1231H673Q659 1229 659 1218Q659 1206 720 1197L727 1184V1150H700Q754 983 943 528L977 534H1018L1011 582V609Q1025
653 1025 676Q1011 676 1011 690V697Q1013 710 1025 710H1031L1045 703L1261 1231L1295 1224Q1299 1224 1322 1231V1252H1289Q1275 1252 1275 1265L1417 1630L1431 1637H1877Q1891 1635 1891 1624V1252H1931Q1945 1249 1945 1238L1931 1231H1891V710H1925Q1938
708 1938 697V690Q1938 680 1918 670H1911L1897 676L1891 663V534H1965Q1979 532 1979 521V88Q1979 74 1965 74H1891V-183Q1891 -196 1877 -196H1654Q1586 -196 1451 -190V34L1444 67L1458 74H1505L1539 81V446Q1566 487 1566 528Q1492 533 1492 548Q1532 676 1552
676Q1579 676 1579 690V703Q1532 703 1532 724V846H1525Q1516 846 1471 717Q1512 708 1512 697Q1512 679 1464 670Q1464 676 1458 676Q1431 627 1404 534H1471Q1485 532 1485 521Q1383 268 1356 182Q1312 74 1302 74H1221L1119 -196H998Q930 -196 795 -190Q707
30 707 74H768Q781 74 781 88Q657 398 652 440V528Q648 528 565 534L558 521V88Q558 74 544 74H483Q470 72 470 61V40H504Q517 38 517 27Q517 13 504 13H470V-183Q470 -196 456 -196H219Q162 -196 37 -190L30 -176V0L71 27L30 54V61Q32 74 44 74H118L125 108V501L118
534H44Q30 534 30 548V1137Q32 1150 44 1150H77V1204H44Q30 1204 30 1218V1224H77Q91 1224 91 1238V1252Q76 1252 64 1258Q52 1252 37 1252L30 1265V1414Q30 1429 37 1441Q30 1453 30 1468V1624Q32 1637 44 1637H84Q123 1637 131 1644ZM977 1252H1018Q1025 1252
1025 1245L1038 1252H1045V1231H977Q964 1231 964 1245L977 1252ZM1160 1252H1228V1231H1160Q1146 1231 1146 1245L1160 1252ZM470 879V534H558V636Q517 798 470 879ZM1072 697V676H1079Q1092 676 1092 690V710H1086Q1072 708 1072 697ZM1038 534Q1038 528 1031
528Q1077 394 1099 379L1133 494Q1119 516 1119 528L1038 534Z" />
<glyph unicode="N" glyph-name="N" horiz-adv-x="1847" d="M227 1641Q292 1641 524 1634Q761 1287 788 1276Q814 1276 862 1229H1079Q1092 1227 1092 1215Q1092 1202 1079 1202H1058Q1043 1202 1031 1208Q1020 1202 1004 1202Q989 1202 977 1208L937 1202H896L883
1208L876 1195Q956 1088 1268 634L1234 620Q1327 480 1356 458L1363 492V526Q1363 566 1322 620Q1356 627 1356 634Q1322 686 1322 701Q1335 708 1342 708Q1322 733 1322 755V1114Q1288 1114 1288 1120L1275 1114Q1261 1114 1261 1127V1134Q1263 1148 1275 1148H1322V1269Q1281
1269 1281 1283V1621L1288 1634Q1423 1641 1491 1641H1734Q1741 1641 1741 1634L1755 1641Q1768 1639 1768 1627V1276Q1812 1276 1816 1256V1161Q1816 1151 1795 1141H1755V1120H1795Q1805 1120 1816 1100V640L1768 613V350Q1768 341 1728 323L1734 275V113Q1768
113 1768 100V-150L1775 -184L1761 -191H1457Q1390 -191 1254 -184Q1068 103 1038 113Q1007 113 971 188Q869 319 869 336H889V350L700 620Q734 627 734 634L639 769V864Q639 902 565 999H558V640L518 613V600H592Q605 598 605 586V566Q605 556 585 546H518L511
465V262L518 228Q502 215 477 215V174L511 147V-83L518 -123Q511 -135 511 -150L518 -184L504 -191H207Q149 -191 24 -184L17 -171V-164Q17 -157 24 -157L17 -144V147L-16 174V201L17 228V532Q17 542 38 553H98Q112 553 112 566V586Q112 600 98 600H31Q17 600 17
613Q19 627 31 627H65V640Q65 663 71 674L65 708L71 735Q71 742 65 742L71 776V789Q71 816 65 816L71 864V891Q71 979 65 1120L71 1134L65 1148Q71 1202 85 1202H146Q193 1202 294 1208V1222H288Q238 1222 213 1229Q169 1222 125 1222Q58 1222 58 1269Q17 1269
17 1289V1621L24 1634Q169 1641 227 1641ZM-16 1148H-3Q11 1145 11 1134Q11 1119 -23 1114L-30 1127V1134Q-28 1148 -16 1148ZM1200 1148H1207Q1221 1145 1221 1134V1127Q1221 1114 1207 1114Q1197 1114 1187 1134Q1189 1148 1200 1148ZM1369 674Q1371 661 1383
661V674H1369ZM1396 654V640H1403V654H1396Z" />
<glyph unicode="O" glyph-name="O" horiz-adv-x="1938" d="M1032 1641Q1265 1641 1426 1542Q1414 1536 1400 1536V1523Q1424 1523 1583 1398Q1622 1398 1662 1372H1735L1767 1365V1358Q1767 1345 1754 1345H1721Q1715 1345 1715 1352Q1704 1345 1682 1345V1339Q1831
1173 1905 892L1886 879H1728V872Q1825 872 1840 866Q1851 872 1873 872H1886Q1912 872 1912 747Q1914 734 1925 734H1991Q1997 734 1997 728L2011 734H2017Q2057 730 2057 715Q2057 496 1932 274L1919 268H1794L1767 248H1702Q1689 246 1689 235Q1761 235 1761
228Q1608 -24 1288 -146Q1132 -186 1005 -186H933Q856 -186 828 -172Q815 -179 808 -179Q519 -130 355 12Q228 119 151 228Q140 235 125 235H66V248H131Q131 268 145 268H230L263 274Q161 468 151 629V649L158 662Q164 662 164 655Q263 662 309 662H407V669Q407
682 394 682H158Q150 682 125 728H13Q0 728 0 741Q0 754 53 761V787Q46 787 33 793Q20 787 13 787Q7 800 7 807Q26 1035 177 1266Q235 1345 283 1345Q368 1345 368 1365Q346 1378 329 1378H322L289 1372L283 1385L289 1398Q263 1398 263 1411Q312 1454 447 1536H519Q695
1641 1032 1641ZM486 820V807L526 780V767Q526 754 512 754H480V734H598Q609 734 618 688Q759 682 828 682H880V669Q880 655 867 655Q855 662 848 662Q841 662 841 655L808 662Q784 662 624 655V623Q656 462 788 333Q861 283 861 274L848 268H756L762 255V248H723V235H802Q919
202 959 202Q997 202 1084 222Q1084 235 1071 235H1038V248H1110Q1117 248 1202 268H1268Q1283 268 1294 274Q1307 268 1314 268Q1443 323 1544 511Q1583 643 1583 662V715Q1583 726 1518 734L1505 728H1459Q1432 728 1432 859L1400 866H1176V879Q1275 885 1321
885H1419V892Q1357 1067 1222 1161Q1073 1253 979 1253Q704 1253 532 971Q486 855 486 820ZM33 682H105Q118 680 118 669L105 662H33V682ZM1649 655L1643 642V636H1649Q1649 649 1662 649V655H1649ZM841 557H848Q861 555 861 544V524Q861 511 848 511H841Q828 511
828 524V544Q830 557 841 557ZM72 485H112L118 452L99 439H79Q66 439 59 478L72 485Z" />
<glyph unicode="P" glyph-name="P" horiz-adv-x="1485" d="M158 1644Q194 1637 226 1637Q258 1637 294 1644Q309 1644 321 1637Q463 1644 552 1644H823Q1156 1644 1292 1488L1278 1481H1231V1468Q1233 1454 1244 1454H1326Q1416 1375 1468 1155H1543Q1556 1153
1556 1142Q1534 1128 1516 1128L1502 1135Q1461 1128 1461 1121Q1468 1108 1468 1101L1448 1087H1400V1026Q1400 954 1326 796Q1312 793 1312 782H1482V762H1360Q1344 762 1332 755Q1321 762 1305 762Q1285 741 1231 735Q1197 703 1197 687Q1210 685 1210 673Q1107
572 918 544H837Q749 544 654 538Q616 544 599 544Q553 538 525 538L511 544Q499 538 484 538V504Q484 497 477 497Q477 449 545 449V-127Q545 -161 572 -161V-182Q572 -195 559 -195H267Q209 -195 97 -189Q97 -195 90 -195Q88 -173 50 -148V456L16 463H-11V667L-59
694V728L2 762Q127 768 158 768V775Q138 775 111 782L97 775Q60 782 36 782H2Q-11 782 -11 796V1087H16Q56 1087 56 1128Q87 1128 97 1135Q109 1128 124 1128Q138 1128 138 1142Q138 1155 124 1155H63Q50 1155 50 1176Q50 1260 56 1332Q50 1384 50 1447L36 1454H-32Q-45
1454 -45 1468Q-43 1481 -32 1481H36Q52 1481 56 1515L50 1549Q55 1637 70 1637H97Q133 1637 158 1644ZM-106 1481H-93Q-79 1479 -79 1468V1454H-106Q-120 1454 -120 1468Q-118 1481 -106 1481ZM545 1284V1169Q547 1155 559 1155H620Q633 1153 633 1142Q633 1128
620 1128Q605 1128 593 1135Q581 1128 566 1128L552 1135Q543 1087 532 1087H484Q484 1049 477 1040Q484 1003 484 979V965Q484 950 477 938Q484 926 484 911V884H728Q869 884 925 1033Q925 1076 939 1094L973 1087H980Q993 1087 993 1128H1061Q1061 1135 1068
1149L1054 1155H980Q914 1284 756 1284H545ZM878 1149H952V1135H912L878 1142V1149Z" />
<glyph unicode="Q" glyph-name="Q" horiz-adv-x="1989" d="M746 1644H951Q1016 1644 1170 1611Q1444 1611 1734 1246Q1798 1139 1833 1041H1893Q1913 1041 1913 1034L1946 1041H2019Q2034 1041 2039 1007L1992 994L1953 1001L1926 994Q1919 994 1919 1001L1886
994H1873L1860 1001Q1853 988 1853 981L1860 935L1813 921Q1800 928 1793 928L1787 915L1800 908H1860Q1890 868 1946 868L1953 802V683Q1953 668 1946 656Q1953 644 1953 630Q1919 444 1899 444H1860L1853 411V404L1886 378L1827 258V252L1959 112V99H1919L1979
33Q1814 -131 1813 -140V-146H1833V-159Q1754 -241 1754 -246L1687 -239H1661Q1565 -146 1555 -146Q1540 -146 1528 -153L1435 -73Q1315 -141 1117 -186V-179Q1075 -193 958 -193Q681 -193 520 -120Q383 -66 215 92V99L229 106H262V112L169 238L176 252Q166 252
156 271L129 265Q124 265 -30 271V291H129Q129 308 56 477Q30 640 30 663V802Q30 815 109 822V842Q109 855 43 862Q43 871 23 881L-17 875Q-17 881 -23 881Q-23 893 3 994Q142 1001 195 1001L202 1014V1034H23V1041Q43 1164 229 1372Q379 1524 567 1591L573 1604H560V1617Q674
1644 746 1644ZM547 1047V1041H620Q626 1041 626 1034L640 1041H713Q726 1039 726 1027Q716 1001 706 1001H660Q623 1001 567 994Q554 1001 547 1001Q494 996 494 948Q479 948 467 881Q527 878 527 855H580Q593 853 593 842V828Q593 809 507 802V649Q544 469 640
364Q643 364 706 305V291H567V278L600 271H713Q748 271 925 205L1004 199Q1041 199 1183 238V252Q1044 397 1018 397Q971 397 971 417Q971 442 1051 451Q1290 696 1296 696H1376L1462 616Q1482 616 1482 749Q1482 820 1455 881L1442 875Q1382 875 1382 908H1309Q1296
908 1296 921L1309 928H1369V954Q1349 980 1349 994H1356Q1483 1001 1522 1001L1528 1014Q1522 1034 1488 1034H1415Q1401 1034 1389 1041Q1377 1034 1362 1034H1329Q1177 1206 1051 1233Q1051 1243 978 1259Q754 1259 626 1127Q605 1127 547 1047ZM905 928H931V908H905Q892
908 892 921L905 928ZM998 928H1077V908H998V928ZM1157 928H1230V908H1157Q1144 908 1144 921L1157 928ZM872 444H878V437L865 417Q872 405 872 397H858Q845 397 845 411V417Q845 428 872 444ZM931 444V437L918 417Q925 405 925 397H912Q898 397 898 411V424Q898
439 931 444ZM229 192Q231 179 242 179V192H229ZM248 179V172Q251 159 262 159H268Q268 168 248 179ZM268 152V139H282V152H268Z" />
<glyph unicode="R" glyph-name="R" horiz-adv-x="1544" d="M169 1644Q182 1644 182 1637Q284 1644 332 1644H806Q1064 1644 1152 1597Q1213 1579 1227 1556Q1220 1544 1220 1529Q1326 1478 1403 1305Q1451 1161 1451 1088Q1451 1063 1431 925Q1471 925 1471 911Q1394
700 1227 599L1125 559V552Q1141 537 1200 443Q1178 430 1166 430L1173 416V409Q1050 403 1010 403V396Q1012 382 1024 382H1193L1254 308Q1321 308 1342 240V233Q1308 233 1308 219Q1519 -84 1519 -93Q1492 -98 1492 -106Q1539 -177 1539 -188L1526 -194H1186Q1129
-194 1003 -188Q949 -111 949 -106Q960 -99 983 -99V-93Q786 206 786 233H813V247Q792 314 732 314Q679 382 650 382H528V348Q528 342 522 342L528 328V16H603Q617 14 617 2Q617 -11 603 -11H528Q528 -45 522 -45L528 -59V-140Q528 -155 522 -167Q528 -180 528
-188L515 -194H237Q169 -194 33 -188V-25Q35 -11 47 -11H121V9H47Q33 9 33 23V375L-1 382H-136Q-150 382 -150 396L-136 403Q33 406 33 416Q33 437 47 437Q60 430 67 430L74 443V905Q76 918 87 918H121L128 959Q115 966 108 966Q48 959 40 959Q40 1013 -14 1013V1047L33
1074V1529L74 1556V1624Q76 1637 87 1637H135Q158 1637 169 1644ZM528 1284Q528 1278 522 1278Q528 1210 528 1176V1135Q528 1128 522 1128L528 1115V1108Q528 1047 474 1047V1006Q528 1002 528 986H522Q528 973 528 966H691V952H630L603 918H569V850H779Q916 850
963 918Q1030 918 1030 966H969L956 972Q969 1019 969 1054V1108Q969 1179 847 1264Q832 1278 712 1284L698 1278L684 1284Q678 1284 678 1278Q654 1284 650 1284Q591 1278 583 1278Q545 1284 528 1284ZM142 959V952H155V959H142ZM176 959V952H189V959H176ZM1458
966H1478V952H1458V966ZM1505 966H1526V952H1505V966ZM1539 966H1600V952H1539V966ZM549 430L535 437Q535 423 522 423Q528 410 528 403Q596 409 630 409H637L650 403L678 450Q651 511 644 511H583Q569 511 562 430H549ZM345 403V396Q347 382 359 382H481Q494 382
494 396V403H345ZM888 -106H901Q901 -117 915 -133V-147Q906 -146 888 -113V-106ZM935 -174H942V-188H935V-174Z" />
<glyph unicode="S" glyph-name="S" horiz-adv-x="1411" d="M672 1647Q683 1640 698 1640H718Q862 1640 909 1607H948Q968 1607 1119 1542H1185Q1195 1542 1205 1522Q1198 1515 1152 1515Q1271 1410 1271 1397V1390Q1268 1379 1020 1147H928Q794 1276 724 1285H718Q586
1285 586 1232Q558 1232 553 1140L560 1107H619Q641 1107 678 1074Q724 1065 724 1048L718 1035L731 1028H889V1008H757V1002Q759 984 895 936Q1156 859 1310 725Q1310 717 1376 646Q1297 640 1297 627Q1312 627 1317 594H1396Q1414 594 1435 515L1422 508H1356Q1343
506 1343 495H1429Q1438 495 1448 475V462Q1448 449 1435 449H1369V442Q1369 408 1376 330Q1376 221 1297 73Q1284 71 1284 60V47H1376Q1389 45 1389 34Q1381 34 1304 -52Q1132 -183 836 -183H830Q467 -183 237 41Q66 52 66 113Q3 170 0 218Q98 283 151 310L178
304Q197 309 369 416H448Q459 416 520 317V304H500V291Q612 192 724 192Q895 220 895 357Q895 378 862 449H928V455Q911 488 876 488H810Q782 488 737 495L724 488Q711 495 704 495V508H711Q729 508 843 515V528L658 587Q638 587 612 594Q601 587 586 587Q544 607
467 627V640H514V653Q310 729 237 857Q187 925 178 1008L191 1015H217Q224 1015 224 1008Q234 1015 263 1015V1028H178V1041Q211 1041 211 1054L165 1081Q155 1107 145 1107H72V1160Q72 1366 263 1522H283Q290 1522 290 1515L303 1522L316 1515Q356 1522 356 1535L342
1542H303V1548Q388 1597 388 1607Q388 1626 546 1640H645Q660 1640 672 1647ZM290 1028V1015H296V1028H290ZM309 1028V1015H329Q329 1028 316 1028H309ZM20 1028H33V1015H20V1028ZM53 1028H72V1015H53V1028ZM560 508H625V488L579 495H560V508ZM362 390V376H369V390H362Z"
/>
<glyph unicode="T" glyph-name="T" horiz-adv-x="1257" d="M166 1642H1291Q1306 1642 1318 1635Q1330 1642 1345 1642Q1359 1625 1359 1615L1352 1601Q1359 1566 1379 1547V1291L1372 1278L1338 1284H1197L1156 1278Q1145 1284 1123 1284L1076 1278Q1064 1284
1049 1284L1035 1278Q1028 1278 1028 1284L995 1278H927V1042Q927 1028 873 1021Q873 995 860 995H799Q786 992 786 981Q788 968 799 968H867L880 961L873 927V866L914 839Q914 826 833 819V422Q833 403 765 395V388H867Q907 370 907 361V-172Q907 -185 894 -185H624Q556
-185 422 -178Q415 -54 415 4V368Q354 381 354 395L341 388H280V395Q282 408 294 408L327 401Q340 408 348 408V813Q350 826 361 826H422V853Q388 853 388 866V954Q388 968 374 968H314Q300 968 300 981Q302 995 314 995H374L401 1028H435L442 1089Q442 1102 435
1102L442 1136V1244Q442 1273 415 1284Q408 1284 408 1278L374 1284H-16Q-30 1284 -30 1298V1554Q-57 1554 -57 1567V1574Q-57 1589 -50 1601Q-57 1613 -57 1628Q-50 1628 -50 1635Q95 1642 166 1642ZM226 995H240Q253 992 253 981Q253 968 240 968H226Q213 968
213 981Q215 995 226 995ZM415 462V449H422V462H415Z" />
<glyph unicode="U" glyph-name="U" horiz-adv-x="1661" d="M47 1641H506Q520 1639 520 1628V1148H646Q660 1146 660 1135V1128Q570 1121 526 1121H520V1075L486 1048V1008Q509 1008 533 975H613Q626 973 626 961V615Q626 602 613 602Q606 602 606 608Q595 602
580 602V588Q580 573 586 562Q586 502 526 502V495L573 489L600 495Q626 495 640 395Q660 380 660 349L633 335Q597 342 573 342H566Q566 277 719 195Q757 175 866 169Q1008 210 1093 329Q1095 342 1106 342H1159Q1215 342 1232 409L1239 442V555Q1239 602 1252
628Q1239 628 1239 642V922L1246 955Q1217 975 1152 975Q1152 968 1146 968Q1146 1004 1099 1008V1048L1139 1075Q1139 1128 1152 1128H1272V1141Q1182 1148 1139 1148V1628Q1141 1641 1152 1641H1605Q1619 1639 1619 1628V1161Q1621 1148 1632 1148H1745Q1759
1146 1759 1135Q1725 1121 1639 1121H1625Q1625 1061 1586 1061V1008Q1619 1008 1619 995L1612 981L1645 975H1712L1732 961L1725 928V435Q1725 420 1732 409Q1725 342 1712 342H1632Q1610 342 1586 222Q1540 95 1359 -51Q1372 -53 1372 -64V-71Q1153 -184 966
-184Q938 -184 913 -191Q635 -191 413 -91Q352 -51 293 -44Q113 80 53 269L40 335L53 342H127Q136 342 147 362L140 455Q147 468 147 475L127 489H47Q33 489 33 502L47 508H93V588L140 615Q140 655 147 655L140 702V822Q140 846 147 882Q140 890 140 928V942Q140
948 147 948Q147 966 107 975Q94 968 87 968V975L73 968H47Q29 1001 20 1001H7V1021L0 1055Q40 1055 40 1128H173V1141Q74 1148 40 1148L33 1161V1628Q35 1641 47 1641ZM1312 695Q1312 682 1299 682V675H1312L1319 688V695H1312Z" />
<glyph unicode="V" glyph-name="V" horiz-adv-x="1354" d="M-240 1641H266Q277 1641 307 1546L570 750V723H549V710Q603 706 603 656H678Q693 656 732 514Q784 359 792 359H799Q799 367 826 467V487Q803 576 792 602V608L806 629V642Q806 656 786 656Q773 649
765 649V662Q765 681 779 703Q752 703 752 716V723Q787 723 806 757H860Q921 757 921 818V824Q853 831 819 831H799Q786 831 786 845Q788 858 799 858H853L887 865V878Q863 885 860 885Q847 878 840 878V885L826 878H819Q806 878 806 892L988 1452Q1051 1636 1062
1641H1575Q1589 1639 1589 1627Q1319 893 1319 885Q1326 885 1326 878L1339 885Q1346 885 1359 878L1400 885L1407 872Q1390 858 1386 858H1319Q1305 856 1305 845Q1307 831 1319 831H1427Q1440 831 1440 811Q1417 757 1407 757H1339Q1312 757 1292 723Q1251 723
1251 710Q1258 710 1258 703L1272 710H1278Q1292 707 1292 696Q1278 694 1278 683V669L1312 642Q1099 8 1076 8H995Q954 8 954 -46H1083V-67H988Q981 -67 927 -188H921Q914 -188 914 -181L900 -188Q894 -188 894 -181L846 -188H590Q575 -188 563 -181Q551 -188
536 -188Q479 -188 448 -175L408 -181H401Q392 -181 354 -80Q356 -67 367 -67H435Q448 -67 448 -53Q357 -46 313 -46Q297 -46 293 1Q307 1 307 14L334 8Q419 14 428 21Q273 432 226 588Q205 656 151 656H97Q68 710 30 710V716Q41 723 64 723Q-112 1226 -260 1627Q-257
1627 -240 1641ZM-85 723H-24Q-11 721 -11 710L-24 703H-85Q-98 703 -98 716L-85 723ZM205 8Q216 8 232 -40L219 -46H212Q201 -46 192 1L205 8Z" />
<glyph unicode="W" glyph-name="W" horiz-adv-x="2342" d="M-161 1644H326Q344 1644 380 1468Q394 1367 441 1367Q468 1367 468 1306Q458 1299 427 1299L529 886Q552 771 590 771V731Q590 717 576 717H529L536 670H610Q624 670 624 683Q617 695 617 710L631 717H691Q691
723 705 771V778Q698 778 685 785Q786 1128 813 1252Q830 1306 847 1306L861 1299Q885 1299 895 1353Q879 1367 847 1367V1374Q922 1626 922 1644H1395Q1413 1644 1456 1428Q1474 1360 1524 1360Q1538 1360 1538 1326V1313Q1538 1299 1504 1299V1286Q1538 1128
1646 785Q1673 776 1673 724L1659 717H1612V703Q1626 687 1626 670H1673L1707 676L1700 710V717H1741Q1781 717 1781 771Q1768 788 1768 791L1863 1143L1971 1563H1978Q1971 1576 1971 1583Q1989 1644 1998 1644H2025Q2039 1642 2039 1631Q2061 1644 2079 1644H2499Q2499
1597 2485 1597Q2485 1590 2492 1590L2269 785Q2282 783 2282 771V737Q2275 717 2242 717L2208 724Q2192 670 2181 670H2086Q2072 668 2072 656Q2072 643 2147 636V622L2140 609L2154 602H2242L2275 609L2282 595V582Q2282 568 2228 561Q2228 548 2201 446L2242
433Q2228 404 2120 -7L2099 -21Q2086 -14 2079 -14Q2079 -21 2072 -21L2079 -34Q2051 -183 2039 -183L2011 -190L1998 -183L1957 -190H1944Q1937 -190 1937 -183L1923 -190H1626Q1568 -190 1538 -177Q1526 -183 1511 -183H1497Q1477 -183 1443 -28H1423V-14H1463Q1463
18 1355 439H1321Q1301 439 1280 561L1294 568L1307 561L1314 575V582Q1314 597 1240 602Q1204 595 1172 595Q1163 643 1125 643L1111 636Q1100 643 1077 643V656Q1079 670 1091 670H1165L1179 676L1172 710V717H1233Q1233 764 1213 791Q1226 808 1226 819L1219
832Q1247 898 1247 927Q1214 1062 1199 1062Q1144 870 1131 778Q1145 776 1145 764Q1145 710 1057 710Q1057 670 1043 670H949Q935 668 935 656V643H996Q1010 640 1010 629V615L1003 602H1131Q1145 600 1145 588V582Q1145 569 1084 561Q1084 521 1064 446L1098
433L949 -156Q949 -190 922 -190L888 -183Q881 -183 867 -190Q800 -183 766 -183L705 -190Q692 -183 685 -183Q658 -190 637 -190Q624 -190 624 -183L583 -190Q536 -190 387 -183L292 148Q299 162 299 169Q264 224 218 439H177Q169 439 136 561Q177 570 177 582Q177
602 35 602Q21 643 1 643Q-35 636 -40 636Q-51 643 -67 643V656Q-65 670 -53 670H21Q35 670 35 683V697L28 710L42 717H89V744Q89 768 48 798L-80 1292Q-78 1306 -67 1306Q-54 1299 -46 1299L-40 1313Q-40 1325 -60 1367H-94Q-118 1386 -175 1638L-161 1644ZM-175
1360H-155Q-134 1353 -134 1319Q-134 1306 -148 1306H-161Q-175 1306 -189 1353L-175 1360ZM1253 852V839H1260V852H1253ZM1240 839V825H1247V839H1240ZM427 663Q434 650 434 643H515V656Q515 670 502 670H441L427 663ZM1511 656Q1513 643 1524 643H1599V670H1524Q1511
668 1511 656ZM-128 670L-121 656V643H-141V656Q-139 670 -128 670ZM522 643V615Q524 602 536 602H576L610 609V615Q610 636 556 643L543 636Q529 643 522 643ZM1619 643L1612 629V615Q1614 602 1626 602H1680Q1690 602 1700 622Q1673 643 1619 643ZM671 595Q671
575 637 555Q663 439 685 439H698L732 568Q759 568 759 582V595H671ZM1727 568Q1747 439 1781 439Q1818 554 1829 568Q1842 568 1842 582V595H1775Q1757 568 1727 568ZM712 433Q719 423 719 392Q739 399 739 433V439H725L712 433ZM1802 426Q1804 412 1815 412H1822Q1822
420 1829 433L1815 439Q1802 437 1802 426Z" />
<glyph unicode="X" glyph-name="X" horiz-adv-x="1188" d="M-254 1641H267Q288 1634 463 1350V1337H422V1323H503Q551 1281 551 1256Q537 1249 530 1249V1242Q584 1170 584 1154H618Q659 1127 659 1100H672Q692 1104 692 1148Q663 1148 632 1222L692 1290Q900
1623 922 1641H1443Q1456 1639 1456 1628L1220 1276Q1148 1215 1125 1168V1154Q1145 1154 1145 1141L1105 1073V1066H1152Q1166 1064 1166 1053L1152 1033Q1200 1033 1200 1019L1186 1012H1118L1105 1019Q1060 952 1037 952Q1003 927 902 755Q1238 243 1382 39V32Q1382
22 1348 12Q1457 -154 1463 -177Q1451 -184 1402 -191V-184L1389 -191H1132Q902 -191 902 -157Q902 -145 801 12Q811 19 841 19V32L720 221Q686 272 686 296L720 350Q701 395 679 411L591 282Q511 129 456 86Q443 93 436 93Q429 93 429 86Q422 86 409 93Q339 86
300 86H287V73H442Q456 71 456 59Q440 19 402 19Q357 19 327 -63Q242 -190 233 -191H-71Q-126 -191 -200 -184L-213 -191Q-267 -184 -267 -177L-281 -184H-288Q-301 -184 -301 -171Q-176 19 -159 19Q-106 19 -92 59Q-105 66 -112 66Q-125 66 -261 73V79Q-259 93
-247 93Q-209 93 -200 86Q-163 93 -139 93H-65Q149 429 375 749Q301 877 246 945Q248 958 260 958L226 1012L240 1019H253Q260 1019 260 1012L273 1019H287Q294 1019 294 1012Q305 1019 321 1019V1033H260Q234 1066 206 1066H158Q104 1154 50 1154Q22 1203 -11
1242Q1 1249 16 1249V1262Q-11 1323 -78 1323L-92 1317Q-129 1323 -146 1323V1337H-78V1344Q-78 1357 -267 1628Q-265 1641 -254 1641ZM395 1337V1323Q409 1323 409 1337H395ZM57 1060H84Q125 1055 125 1039V1033H64Q54 1033 44 1053L57 1060ZM388 783V776H402V783H388Z"
/>
<glyph unicode="Y" glyph-name="Y" horiz-adv-x="1317" d="M-178 1641H349Q412 1572 518 1384Q504 1378 444 1371V1364Q444 1354 464 1344H491L539 1350Q575 1291 586 1290H674V1269H600V1263Q606 1249 606 1242Q590 1229 579 1229L694 1033H708Q741 1100 741
1107Q725 1107 701 1168Q736 1236 789 1236Q813 1269 843 1276L877 1269L910 1276V1290H850Q836 1290 836 1303Q836 1309 1052 1641H1573Q1586 1639 1586 1628Q1424 1405 1363 1290H1424Q1438 1288 1438 1276L1424 1269H1350L1309 1229H1269Q917 692 917 681H1005Q1019
679 1019 668Q994 654 965 654H931L917 661L910 647V458L951 431V384Q951 370 938 370H796V363Q811 363 823 357Q829 357 829 363L863 357H971Q985 355 985 343V-150L1012 -177Q1012 -191 992 -191Q985 -191 985 -184L951 -191H647Q640 -191 640 -184Q633 -184
633 -191Q551 -182 539 -177Q539 -184 532 -184Q532 -180 498 -150V330Q498 339 478 350H376L336 357Q323 350 316 350V357L302 350H295Q282 350 282 363L295 370H444Q458 370 458 384V431Q458 440 410 458L417 505V634L410 647L431 661H478Q485 661 485 654Q518
663 518 674L451 681H417Q368 723 45 1229Q57 1236 72 1236L65 1269H106L140 1276Q140 1290 126 1290H52L5 1344H-70Q-80 1344 -97 1371Q-16 1378 -16 1391Q-178 1614 -178 1641ZM431 729V722H444V729H431ZM289 681L295 668L282 661L275 674L289 681ZM343 681H349V661H329V668Q331
681 343 681Z" />
<glyph unicode="Z" glyph-name="Z" horiz-adv-x="1505" d="M169 1644H1564V1624H1490Q1466 1613 1361 1400Q1409 1400 1409 1387Q1244 1054 1185 974Q1119 974 1117 967Q1106 974 1090 974H1077Q1077 970 1090 953V946L1084 933L1131 926Q1151 926 1151 933L1185
926H1287Q1300 924 1300 913L1287 906H1219Q1195 906 1158 899Q1149 906 1111 906Q1063 845 894 506L907 499H975Q989 497 989 486Q985 466 935 466H880L840 425H752Q734 398 670 398L711 371Q632 219 616 174H684L725 168Q731 168 731 174L779 168Q819 168 819
174L887 168H1219Q1266 168 1368 174Q1387 127 1395 127H1476Q1490 125 1490 113V-103L1483 -184Q1416 -191 34 -184H14Q0 -184 0 -171Q112 29 149 120V127H142L81 134Q68 127 61 127L54 141L176 364V384H142V398H183L223 432H312Q316 432 352 472H440Q454 472
454 486Q454 499 440 499H372L359 506L569 899Q681 906 738 906H752Q765 906 765 919V926H758Q691 926 555 933V940Q555 980 664 980L819 1265V1285H264Q249 1285 237 1292Q230 1292 230 1285L183 1292H135Q122 1292 122 1305V1387L129 1400Q68 1400 68 1427L74
1468L68 1509L74 1549L68 1617L81 1624H142L169 1644ZM108 1421V1407H115V1421H108ZM34 1387H47V1299H34V1387ZM183 1346V1332Q196 1332 196 1319H203V1332L183 1346ZM372 974H433V960H372V974ZM528 974H542V960H528V974Z" />
<glyph unicode="[" glyph-name="bracketleft" horiz-adv-x="758" />
<glyph unicode="\" glyph-name="backslash" horiz-adv-x="569" />
<glyph unicode="]" glyph-name="bracketright" horiz-adv-x="758" />
<glyph unicode="^" glyph-name="asciicircum" horiz-adv-x="1014" />
<glyph unicode="_" glyph-name="underscore" horiz-adv-x="1024" />
<glyph unicode="`" glyph-name="grave" horiz-adv-x="1024" />
<glyph unicode="a" glyph-name="a" horiz-adv-x="1351" d="M519 1643H918Q930 1641 1027 1359L1047 1346H1115Q1133 1332 1277 912L1325 777L1311 770H1155V763Q1155 727 1196 723L1237 729H1243Q1272 714 1433 215L1419 208Q1396 215 1392 215Q1386 215 1386
208L1338 215H1304Q1291 213 1291 201Q1327 93 1338 93H1474Q1487 91 1487 79V73Q1487 59 1474 59H1325Q1309 59 1298 66Q1286 59 1270 59H1128L1081 66L1074 52Q1076 39 1088 39H1494Q1514 39 1582 -185V-192H1074Q1063 -192 993 39H634Q619 39 607 45Q595 39
580 39Q566 39 566 52Q573 52 573 59Q698 66 756 66H973Q986 66 986 79L966 93H830Q822 93 790 154H736V147Q736 141 742 93H681Q674 93 634 154H241Q202 154 194 100L207 93H322Q336 91 336 79V73L248 -192H-267V-185L-172 86L-375 93Q-389 93 -389 106Q-355 215
-341 215H-158Q-109 215 -91 330Q-79 331 -23 499L52 716V723H-16Q-30 786 -21 767Q-30 777 160 777Q170 779 268 1054L363 1332V1339H329V1346Q380 1519 438 1637L519 1643ZM736 1054Q663 770 634 770H478Q465 770 458 729H499Q539 725 539 709Q471 500 471 492L505
486L553 492Q566 486 573 486L614 492Q620 492 620 486L654 492H769Q776 492 776 486Q844 492 844 506V513Q819 558 783 689Q783 724 722 729Q722 746 708 763Q711 777 722 777H837Q803 901 749 1054H736Z" />
<glyph unicode="b" glyph-name="b" horiz-adv-x="1584" d="M297 1644H900Q1274 1644 1428 1380Q1410 1375 1346 1367Q1376 1305 1400 1191H1468Q1482 1191 1482 1171H1563Q1576 1168 1576 1157V1130Q1576 1116 1563 1116Q1556 1116 1556 1123Q1549 1123 1549 1116L1516
1123H1488Q1488 872 1279 744V731Q1549 612 1549 311V257H1556Q1565 257 1624 264L1631 250Q1626 162 1604 162H1576Q1561 162 1549 169Q1526 169 1488 47L1434 -7L1387 0H1367Q1182 -190 988 -190H-7Q-21 -190 -21 -176V-14Q-19 0 -7 0H60Q74 0 74 13V27Q74 47
67 47L74 81V480Q74 494 60 494H20Q-38 494 -163 501L-170 514V521L-163 534Q-38 541 20 541H67L74 575V1076L67 1116Q74 1128 74 1150V1171Q74 1179 26 1204V1360Q26 1369 67 1380Q74 1394 74 1401Q74 1422 67 1529Q74 1631 81 1638Q226 1644 297 1644ZM-82 1367H-68V1198H-82V1367ZM-34
1367H-21V1198H-34V1367ZM595 1279H473V1204Q475 1191 487 1191H548Q551 1191 568 1177L561 1130V907Q563 893 575 893H845Q994 953 994 1069V1123H1076V1130Q1076 1159 1048 1171L1035 1164Q1028 1164 1028 1171L1015 1164H981Q957 1191 933 1191H879Q798 1279
751 1279H615Q609 1279 609 1286L595 1279ZM568 555V534H642Q743 534 913 541Q909 561 859 561H751Q693 561 568 555ZM324 534Q324 521 318 521Q324 508 324 501H548V521L500 534H324ZM1055 534V507L1062 494L1109 501H1285Q1299 501 1299 514V521Q1299 534 1285
534H1055ZM-217 534Q-204 532 -204 521V514Q-204 501 -217 501Q-231 501 -231 514V521Q-229 534 -217 534ZM609 494H568L561 446Q561 426 568 426L561 392V358Q561 300 568 237Q561 211 561 176L575 169H988Q1043 169 1109 250Q1028 257 1028 270Q1051 270 1062
399Q1008 494 1001 494Q951 494 669 501L622 494V501L609 494Z" />
<glyph unicode="c" glyph-name="c" horiz-adv-x="1784" d="M690 1644Q697 1644 697 1637L723 1644Q1041 1644 1266 1492Q1504 1492 1504 1439Q1653 1319 1735 1181V1141L1490 1016Q1422 976 1391 976H1325Q1176 1184 1054 1214Q1014 1233 928 1260Q811 1260 657
1181V1174Q730 1174 730 1161Q551 1000 551 910Q530 885 512 778H379Q366 776 366 764Q366 755 386 745H498Q508 745 531 579Q565 445 670 341L657 335H584V321Q672 235 875 189Q950 189 1094 249Q1227 249 1299 335H1305V348H1239V354Q1264 399 1325 473H1404Q1418
473 1636 354Q1775 354 1828 295V288Q1801 259 1801 255L1755 262Q1712 262 1636 130Q1607 116 1530 116H1517Q1507 116 1497 97H1583V77Q1372 -119 1226 -142Q1121 -194 988 -194H849Q488 -194 207 63Q179 97 108 97Q85 90 82 90Q55 100 55 110Q57 123 69 123Q76
123 88 116L128 123H141V130Q22 293 22 328V335H88L121 341Q44 517 35 698H-50V718H22Q35 718 35 731Q35 745 22 745H-97Q-110 745 -110 758V778Q-80 778 -70 784L-57 778Q42 778 42 804Q55 991 148 1155V1161Q148 1174 135 1174H69L55 1181Q174 1391 326 1472Q326
1485 313 1485H181V1492Q258 1561 459 1618Q566 1637 651 1637H664Q679 1637 690 1644ZM260 718V698H280Q293 698 293 712L280 718H260ZM961 348H1021Q1034 346 1034 335Q951 262 915 262H862V275Q887 275 961 348Z" />
<glyph unicode="d" glyph-name="d" horiz-adv-x="1767" d="M254 1644H640Q1053 1644 1285 1454Q1455 1315 1536 1176H1631Q1753 968 1753 817V803Q1753 800 1739 783L1705 789H1651V756Q1651 742 1637 742H1563V688H1637Q1651 686 1651 674V661Q1651 513 1536
274Q1522 272 1522 260V254H1651Q1664 252 1664 240Q1642 227 1624 227H1508L1407 104H1278Q1176 104 1176 71V64H1352Q1366 62 1366 50Q1355 50 1285 -11Q1029 -194 790 -194H43V50Q43 64 30 64H16Q-160 64 -160 84V91Q-158 104 -146 104H30Q43 104 43 118V227Q88
227 179 233V247Q87 254 50 254L43 267V667Q43 677 23 688H-38Q-51 688 -51 701V728Q-51 744 3 749L16 742L64 783Q152 783 152 803V1162Q152 1178 43 1190V1624L50 1637Q186 1644 254 1644ZM532 1264V1190Q534 1176 545 1176H627Q640 1174 640 1162V803Q640 798
620 783L586 789H545L518 742H457Q444 740 444 728V688H518Q524 688 539 667L532 633V369Q532 354 539 342Q532 330 532 315V288L539 254H620Q635 254 647 247Q659 254 674 254L681 240L654 227Q640 227 640 233L593 227H539L532 193V179Q534 165 545 165H688Q754
165 905 227Q1007 233 1054 233L1061 247Q993 254 959 254H946V267Q1071 358 1129 532L1163 674L1142 688H1081Q1068 688 1068 701V728Q1068 738 1088 749Q1095 749 1095 742Q1158 742 1176 783H1217L1264 789V803Q1239 1003 1068 1169Q919 1181 884 1217Q775 1278
701 1278H545Q532 1276 532 1264ZM10 1176H23Q37 1174 37 1162V1149Q37 1137 3 1129L-4 1142V1162Q-2 1176 10 1176ZM973 783H1047Q1061 781 1061 769V762Q1061 749 1047 749H986Q973 749 973 762V783ZM-113 749H-99Q-85 747 -85 735V701Q-85 688 -99 688H-126V735Q-124
749 -113 749Z" />
<glyph unicode="e" glyph-name="e" horiz-adv-x="1248" d="M228 1644H1190Q1199 1644 1210 1624V1393Q1210 1384 1230 1373H1257Q1273 1373 1285 1380Q1318 1371 1318 1360V1346Q1318 1333 1305 1333H1271V1299Q1271 1285 1257 1285H790Q719 1285 574 1278V1217Q576
1204 587 1204H648Q662 1202 662 1190V899H1251Q1264 897 1264 886V784Q1264 771 1190 764L1176 771L1136 764Q1122 771 1115 771L1108 737V622L1115 554L1095 540H519Q519 517 472 513L431 520H418Q404 518 404 506V500H445L513 493V269Q513 233 553 229Q553 214
560 202Q553 190 553 175V168H1197Q1210 168 1217 100H1318Q1332 98 1332 87Q1332 73 1318 73H1244L1210 66V-191H100Q93 -191 93 -184L79 -191H39Q29 -191 18 -171V-157Q18 -150 25 -150L18 -137V26L-16 32H-76Q-90 32 -90 46V60Q-88 73 -76 73Q37 80 100 80H127V93L59
100H32Q18 100 18 120L25 134Q18 146 18 161Q18 170 59 181Q66 193 66 209Q66 238 18 242V473L25 486L12 493H-76Q-90 493 -90 506Q-88 520 -76 520H5Q18 520 18 534V757Q18 771 39 771Q60 771 167 777V1190Q167 1211 93 1211H79V1319L127 1346V1360Q127 1373 113
1373H32Q18 1373 18 1387V1624L25 1637Q161 1644 228 1644ZM-29 831H5Q18 829 18 818V784Q18 771 5 771H-29Q-43 771 -43 784V818Q-40 831 -29 831ZM215 80H276V93H228Q215 91 215 80ZM946 73V46Q948 32 960 32H1054Q1054 40 1061 53Q1054 66 1054 73H946Z" />
<glyph unicode="f" glyph-name="f" horiz-adv-x="1160" d="M267 1641H1225Q1239 1639 1239 1627V1294L1225 1274L1178 1281Q589 1274 539 1274V1240Q539 1226 525 1226H403Q389 1224 389 1213V1172Q391 1158 403 1158H410Q430 1158 430 1165Q505 1158 518 1145H668Q682
1143 682 1131V1124Q620 1118 566 1118H505V907Q507 893 518 893H1219Q1232 891 1232 880V554Q1232 544 1212 533H648Q638 533 627 513V289L634 255H702Q716 252 716 241V159Q716 146 702 146H634Q634 139 627 125V-24L634 -58H831Q845 -60 845 -72V-78Q845 -92
824 -92Q771 -92 634 -99Q634 -106 627 -106L634 -153V-187Q634 -201 620 -201H151Q138 -201 138 -187V-106Q140 -92 151 -92H308Q343 -85 349 -85V-65L172 -58H151Q138 -58 138 -45V139Q140 153 151 153H219V241Q219 255 138 261V887Q124 887 124 893Q117 893
117 887L70 893H22Q9 893 9 907V1104Q11 1118 22 1118Q146 1124 185 1124Q185 1138 165 1138Q68 1138 -32 1158H-100V1213Q-98 1226 -86 1226H-46Q-39 1226 -39 1220Q-27 1225 43 1233V1621L50 1634Q196 1641 267 1641ZM43 248L50 234V166Q50 153 36 153L29 166V234Q31
248 43 248ZM90 248H104Q117 246 117 234V207Q117 200 111 200L117 187V166Q117 153 104 153H90Q77 153 77 166V234Q79 248 90 248Z" />
<glyph unicode="g" glyph-name="g" horiz-adv-x="2009" d="M1124 1639Q1358 1639 1557 1527V1521Q1522 1521 1498 1514V1508Q1646 1438 1806 1219Q1870 1219 1885 1180Q1885 1171 1846 1160Q1846 1130 1629 1035Q1531 970 1491 970H1439L1314 1120Q1266 1145 1262
1160V1166H1288V1180Q1279 1180 1203 1219H1176Q1115 1219 1078 1245H973Q958 1245 947 1239L934 1245Q707 1174 638 1061Q622 1042 553 1035V1029Q555 1015 566 1015Q579 1015 579 1022L645 1015H763V1009Q763 996 750 996H592Q553 970 514 773V720Q514 640 553
510L540 504H474L435 497Q422 504 415 504L402 497Q389 504 382 504V497Q426 372 559 287Q624 241 651 241H815Q969 195 1039 195Q1175 241 1209 241Q1222 234 1229 234Q1378 334 1386 359Q1424 386 1491 497V504H966Q953 504 953 517V700Q986 720 986 733L980
746Q986 758 986 773Q953 781 953 792Q966 809 966 812Q980 812 980 805Q1057 812 1091 812H1774Q1788 812 1800 805Q1811 812 1826 812H1944L1984 766V727Q1951 709 1944 641Q1938 545 1938 510Q1971 510 1971 497V490Q1896 234 1839 234Q1828 241 1813 241Q1659
-37 1262 -166Q1151 -186 1098 -186H973Q469 -186 179 241H2Q-31 259 -110 464V504H67L41 714V746Q70 996 93 996Q220 1002 258 1002V1015H251Q182 1015 41 1022Q41 1032 107 1048Q234 1367 500 1514Q604 1514 678 1560Q854 1639 1124 1639ZM-12 1042H8V1022Q-15
1015 -18 1015L-25 1029Q-23 1042 -12 1042ZM855 812Q920 807 920 792Q920 779 907 779H848Q835 779 835 792Q835 802 855 812ZM769 805H783Q796 803 796 792V779H769Q756 779 756 792Q758 805 769 805Z" />
<glyph unicode="h" glyph-name="h" horiz-adv-x="1801" d="M175 1641L222 1634H498Q513 1634 524 1641Q565 1632 565 1621V1117Q565 1103 551 1103H484Q471 1101 471 1090V1083Q471 1070 524 1063Q536 1070 551 1070Q565 1053 565 1043L558 1029Q558 1014 598
1002Q598 908 625 908Q679 908 679 902L713 908H1257Q1264 932 1264 935Q1264 942 1257 955L1264 989Q1257 1002 1257 1009H1223Q1210 1009 1210 1023V1063H1002Q988 1063 988 1076V1097Q1112 1103 1170 1103H1197Q1210 1103 1210 1117V1621Q1212 1634 1223 1634H1694V1144L1701
1110L1687 1103H1586L1546 1097Q1535 1103 1513 1103H1486Q1472 1101 1472 1090V1083Q1474 1070 1486 1070Q1610 1063 1694 1063Q1694 1056 1701 1056L1694 1023Q1694 1009 1748 1002V532L1754 519L1768 525H1795Q1835 521 1835 505V471Q1835 462 1815 451Q1791
458 1788 458L1748 451V303Q1748 287 1694 277V-127L1701 -174L1681 -187H1398Q1341 -187 1217 -181L1210 -167V277Q1212 290 1223 290H1257L1264 337Q1264 352 1257 364Q1266 446 1271 458L1284 451H1324Q1334 451 1344 471V505Q1344 519 1264 525L1250 552L1237
545H1089Q1065 545 1029 552Q1017 545 1002 545L988 552Q976 545 961 545Q955 545 955 552L941 545H753L713 552Q702 545 679 545H619Q605 543 605 532V303Q607 290 619 290H659Q674 290 686 297Q740 290 740 277V270Q740 256 726 256H551L518 250V-174Q518 -187
504 -187H215Q158 -187 34 -181L27 -167V-80Q27 -73 34 -73L27 -60V243Q29 256 40 256H47Q67 256 67 250L101 256H215L249 263V277Q249 290 235 290H128Q114 290 114 303V996L74 1023Q74 1063 61 1063H-7Q-20 1063 -20 1076V1083Q-18 1097 -7 1097H54Q64 1097 74
1117V1486Q74 1502 81 1513Q74 1525 74 1540V1621Q76 1634 88 1634H148Q175 1634 175 1641ZM1123 519H1183Q1197 516 1197 505V471Q1197 458 1183 458Q1109 458 1109 478H1116L1109 492V505Q1111 519 1123 519Z" />
<glyph unicode="i" glyph-name="i" horiz-adv-x="657" d="M55 1641H522Q536 1641 543 1567H617Q631 1564 631 1553L610 1539Q587 1546 583 1546Q571 1539 556 1539V1546Q543 1539 536 1539V740Q536 724 590 720Q602 727 617 727Q617 724 631 707V686Q631 677 610
666H570Q549 666 549 673L516 666H448Q434 664 434 652V625Q436 612 448 612H590V138Q590 123 597 111Q586 77 556 77Q556 84 549 84L543 70V-126Q545 -140 556 -140Q568 -133 583 -133Q597 -158 597 -187L583 -194H285Q228 -194 103 -187V-147L55 -120Q55 -113
48 -113L55 -65V-25Q55 -9 48 2Q55 14 55 29V63Q55 76 -6 97Q-13 110 -13 117Q-2 145 8 145H35Q47 145 55 84H89Q103 84 103 97V598Q103 612 89 612Q-30 619 -53 619L-60 632V652Q-60 662 -40 673Q-33 673 -33 666L-19 673H123Q136 673 136 686V707L123 727L75
720H62Q52 720 42 740V1526L48 1539Q38 1546 8 1546V1560H42V1627Q44 1641 55 1641ZM89 1553Q91 1539 103 1539H116Q130 1539 130 1553Q130 1567 116 1567H103Q89 1564 89 1553Z" />
<glyph unicode="j" glyph-name="j" horiz-adv-x="1299" d="M409 1644H1241Q1255 1642 1255 1631V1496Q1255 1483 1201 1476V1389Q1201 1369 1208 1369L1201 1335V758Q1201 718 1248 718Q1255 708 1255 678H1342V597Q1342 584 1329 584H1275L1261 590L1255 577V288Q1255
166 1181 20L1194 13Q1201 13 1214 20Q1260 13 1288 13H1329Q1342 11 1342 0V-7Q1330 -14 1141 -20Q1141 -27 1074 -87V-94Q1089 -94 1100 -87Q1110 -94 1141 -94V-107Q970 -195 845 -195H631Q476 -195 268 -94H194Q133 -43 121 -20L134 -14H268Q282 -14 282 0Q260
13 241 13H101Q20 101 20 194Q92 220 322 268Q344 278 496 315Q534 161 671 161Q765 257 765 342V584H812Q847 584 852 604V664Q852 678 839 678H778Q765 678 765 718H731Q718 718 718 731V1275Q718 1288 704 1288H356Q342 1288 342 1302V1470Q344 1483 356 1483H389V1624Q389
1634 409 1644ZM342 718H356Q369 716 369 705V691Q369 678 356 678H342Q329 678 329 691V705Q331 718 342 718ZM463 718Q470 718 483 711L523 718L530 705V691Q530 678 517 678H456Q443 678 443 691V705Q443 718 463 718ZM611 718L658 711H664L678 718L684 705V678H617Q604
678 604 691V705L611 718Z" />
<glyph unicode="k" glyph-name="k" horiz-adv-x="1764" d="M438 1637T450 1644Q524 1637 524 1624V1232H599Q612 1230 612 1218V1090L619 1056Q707 1056 707 1124Q700 1137 700 1144L707 1157Q700 1169 700 1184Q741 1203 741 1232H680Q666 1232 666 1245Q678
1245 1038 1637Q1591 1637 1606 1637H1633V1630Q1547 1533 1261 1238V1232H1329V1218Q1329 1209 1167 1056H1085L1052 1049V1056L1038 1049H984V1036H1126Q1140 1034 1140 1022Q1134 1021 950 826V819Q1030 720 1248 475Q1231 461 1221 461Q1221 429 1295 421L1315
394V380H1254V360Q1288 360 1288 353L1322 360H1396Q1448 360 1457 333L1450 319L1417 326Q1392 326 1356 319Q1343 326 1336 326L1322 319Q1309 326 1302 326L1295 313Q1387 220 1572 -12Q1586 -12 1673 -120V-127L1667 -140Q1673 -153 1673 -161H1707Q1717 -161
1728 -181Q1728 -194 1714 -194H1309Q1241 -194 1106 -188Q1087 -154 1045 -154V-140Q1058 -123 1058 -120V-113Q1043 -113 856 130L707 313Q709 326 720 326L748 319Q761 326 768 326V319L781 326H856Q869 326 869 340Q853 353 842 353Q799 353 666 360L653 380Q660
380 660 387Q673 380 680 380L693 387Q705 380 720 380H734V387Q734 400 700 427L687 421Q653 429 653 441V448L707 488Q714 501 714 509Q701 539 687 542H680Q671 542 599 461Q572 461 572 448V441L612 414Q619 401 619 394Q602 380 599 380H538Q524 378 524 367V-181Q524
-194 511 -194H241Q173 -194 38 -188L31 -174V367Q33 380 45 380H119L126 414V421Q78 421 78 441V448Q78 468 126 468V502Q126 509 132 509L126 522V1015Q126 1029 105 1029Q-30 1036 -43 1036L-50 1049L-36 1056Q86 1063 126 1063V1198L119 1232H45Q31 1232 31
1245V1624Q33 1637 45 1637H72Q438 1637 450 1644ZM443 1049V1036H477V1042L470 1056Q459 1049 443 1049ZM612 1015Q614 1002 626 1002L633 1015V1029H626Q612 1027 612 1015ZM24 468H38Q51 466 51 454V441Q51 431 31 421Q21 421 11 441V454Q13 468 24 468ZM876
-134H930Q941 -134 957 -161H883Q873 -161 862 -140L876 -134Z" />
<glyph unicode="l" glyph-name="l" horiz-adv-x="1240" d="M35 1644H504Q517 1644 524 1562Q558 1562 558 1549V1406L504 1365H443Q429 1363 429 1352V1338H504Q517 1336 517 1325V618L511 605Q558 595 558 584V177Q560 163 572 163Q585 163 585 170L653 163H1163L1176
156L1170 122V-82Q1170 -95 1156 -95L1115 -88Q1104 -95 1081 -95V-109Q1086 -109 1122 -115L1163 -109L1170 -122V-183Q1170 -197 1156 -197H252Q195 -197 69 -190V-129Q69 -119 49 -109H-12V-95H49Q58 -95 69 -75V577Q22 603 22 611V1325Q22 1338 -60 1345V1352Q3
1354 49 1393Q69 1393 69 1406V1529Q69 1569 22 1569V1630Q24 1644 35 1644Z" />
<glyph unicode="m" glyph-name="m" horiz-adv-x="1949" d="M131 1644Q168 1637 192 1637H409Q424 1637 436 1644Q524 1644 524 1583L652 1252H713V1231H673Q659 1229 659 1218Q659 1206 720 1197L727 1184V1150H700Q754 983 943 528L977 534H1018L1011 582V609Q1025
653 1025 676Q1011 676 1011 690V697Q1013 710 1025 710H1031L1045 703L1261 1231L1295 1224Q1299 1224 1322 1231V1252H1289Q1275 1252 1275 1265L1417 1630L1431 1637H1877Q1891 1635 1891 1624V1252H1931Q1945 1249 1945 1238L1931 1231H1891V710H1925Q1938
708 1938 697V690Q1938 680 1918 670H1911L1897 676L1891 663V534H1965Q1979 532 1979 521V88Q1979 74 1965 74H1891V-183Q1891 -196 1877 -196H1654Q1586 -196 1451 -190V34L1444 67L1458 74H1505L1539 81V446Q1566 487 1566 528Q1492 533 1492 548Q1532 676 1552
676Q1579 676 1579 690V703Q1532 703 1532 724V846H1525Q1516 846 1471 717Q1512 708 1512 697Q1512 679 1464 670Q1464 676 1458 676Q1431 627 1404 534H1471Q1485 532 1485 521Q1383 268 1356 182Q1312 74 1302 74H1221L1119 -196H998Q930 -196 795 -190Q707
30 707 74H768Q781 74 781 88Q657 398 652 440V528Q648 528 565 534L558 521V88Q558 74 544 74H483Q470 72 470 61V40H504Q517 38 517 27Q517 13 504 13H470V-183Q470 -196 456 -196H219Q162 -196 37 -190L30 -176V0L71 27L30 54V61Q32 74 44 74H118L125 108V501L118
534H44Q30 534 30 548V1137Q32 1150 44 1150H77V1204H44Q30 1204 30 1218V1224H77Q91 1224 91 1238V1252Q76 1252 64 1258Q52 1252 37 1252L30 1265V1414Q30 1429 37 1441Q30 1453 30 1468V1624Q32 1637 44 1637H84Q123 1637 131 1644ZM977 1252H1018Q1025 1252
1025 1245L1038 1252H1045V1231H977Q964 1231 964 1245L977 1252ZM1160 1252H1228V1231H1160Q1146 1231 1146 1245L1160 1252ZM470 879V534H558V636Q517 798 470 879ZM1072 697V676H1079Q1092 676 1092 690V710H1086Q1072 708 1072 697ZM1038 534Q1038 528 1031
528Q1077 394 1099 379L1133 494Q1119 516 1119 528L1038 534Z" />
<glyph unicode="n" glyph-name="n" horiz-adv-x="1847" d="M227 1641Q292 1641 524 1634Q761 1287 788 1276Q814 1276 862 1229H1079Q1092 1227 1092 1215Q1092 1202 1079 1202H1058Q1043 1202 1031 1208Q1020 1202 1004 1202Q989 1202 977 1208L937 1202H896L883
1208L876 1195Q956 1088 1268 634L1234 620Q1327 480 1356 458L1363 492V526Q1363 566 1322 620Q1356 627 1356 634Q1322 686 1322 701Q1335 708 1342 708Q1322 733 1322 755V1114Q1288 1114 1288 1120L1275 1114Q1261 1114 1261 1127V1134Q1263 1148 1275 1148H1322V1269Q1281
1269 1281 1283V1621L1288 1634Q1423 1641 1491 1641H1734Q1741 1641 1741 1634L1755 1641Q1768 1639 1768 1627V1276Q1812 1276 1816 1256V1161Q1816 1151 1795 1141H1755V1120H1795Q1805 1120 1816 1100V640L1768 613V350Q1768 341 1728 323L1734 275V113Q1768
113 1768 100V-150L1775 -184L1761 -191H1457Q1390 -191 1254 -184Q1068 103 1038 113Q1007 113 971 188Q869 319 869 336H889V350L700 620Q734 627 734 634L639 769V864Q639 902 565 999H558V640L518 613V600H592Q605 598 605 586V566Q605 556 585 546H518L511
465V262L518 228Q502 215 477 215V174L511 147V-83L518 -123Q511 -135 511 -150L518 -184L504 -191H207Q149 -191 24 -184L17 -171V-164Q17 -157 24 -157L17 -144V147L-16 174V201L17 228V532Q17 542 38 553H98Q112 553 112 566V586Q112 600 98 600H31Q17 600 17
613Q19 627 31 627H65V640Q65 663 71 674L65 708L71 735Q71 742 65 742L71 776V789Q71 816 65 816L71 864V891Q71 979 65 1120L71 1134L65 1148Q71 1202 85 1202H146Q193 1202 294 1208V1222H288Q238 1222 213 1229Q169 1222 125 1222Q58 1222 58 1269Q17 1269
17 1289V1621L24 1634Q169 1641 227 1641ZM-16 1148H-3Q11 1145 11 1134Q11 1119 -23 1114L-30 1127V1134Q-28 1148 -16 1148ZM1200 1148H1207Q1221 1145 1221 1134V1127Q1221 1114 1207 1114Q1197 1114 1187 1134Q1189 1148 1200 1148ZM1369 674Q1371 661 1383
661V674H1369ZM1396 654V640H1403V654H1396Z" />
<glyph unicode="o" glyph-name="o" horiz-adv-x="1938" d="M1032 1641Q1265 1641 1426 1542Q1414 1536 1400 1536V1523Q1424 1523 1583 1398Q1622 1398 1662 1372H1735L1767 1365V1358Q1767 1345 1754 1345H1721Q1715 1345 1715 1352Q1704 1345 1682 1345V1339Q1831
1173 1905 892L1886 879H1728V872Q1825 872 1840 866Q1851 872 1873 872H1886Q1912 872 1912 747Q1914 734 1925 734H1991Q1997 734 1997 728L2011 734H2017Q2057 730 2057 715Q2057 496 1932 274L1919 268H1794L1767 248H1702Q1689 246 1689 235Q1761 235 1761
228Q1608 -24 1288 -146Q1132 -186 1005 -186H933Q856 -186 828 -172Q815 -179 808 -179Q519 -130 355 12Q228 119 151 228Q140 235 125 235H66V248H131Q131 268 145 268H230L263 274Q161 468 151 629V649L158 662Q164 662 164 655Q263 662 309 662H407V669Q407
682 394 682H158Q150 682 125 728H13Q0 728 0 741Q0 754 53 761V787Q46 787 33 793Q20 787 13 787Q7 800 7 807Q26 1035 177 1266Q235 1345 283 1345Q368 1345 368 1365Q346 1378 329 1378H322L289 1372L283 1385L289 1398Q263 1398 263 1411Q312 1454 447 1536H519Q695
1641 1032 1641ZM486 820V807L526 780V767Q526 754 512 754H480V734H598Q609 734 618 688Q759 682 828 682H880V669Q880 655 867 655Q855 662 848 662Q841 662 841 655L808 662Q784 662 624 655V623Q656 462 788 333Q861 283 861 274L848 268H756L762 255V248H723V235H802Q919
202 959 202Q997 202 1084 222Q1084 235 1071 235H1038V248H1110Q1117 248 1202 268H1268Q1283 268 1294 274Q1307 268 1314 268Q1443 323 1544 511Q1583 643 1583 662V715Q1583 726 1518 734L1505 728H1459Q1432 728 1432 859L1400 866H1176V879Q1275 885 1321
885H1419V892Q1357 1067 1222 1161Q1073 1253 979 1253Q704 1253 532 971Q486 855 486 820ZM33 682H105Q118 680 118 669L105 662H33V682ZM1649 655L1643 642V636H1649Q1649 649 1662 649V655H1649ZM841 557H848Q861 555 861 544V524Q861 511 848 511H841Q828 511
828 524V544Q830 557 841 557ZM72 485H112L118 452L99 439H79Q66 439 59 478L72 485Z" />
<glyph unicode="p" glyph-name="p" horiz-adv-x="1485" d="M158 1644Q194 1637 226 1637Q258 1637 294 1644Q309 1644 321 1637Q463 1644 552 1644H823Q1156 1644 1292 1488L1278 1481H1231V1468Q1233 1454 1244 1454H1326Q1416 1375 1468 1155H1543Q1556 1153
1556 1142Q1534 1128 1516 1128L1502 1135Q1461 1128 1461 1121Q1468 1108 1468 1101L1448 1087H1400V1026Q1400 954 1326 796Q1312 793 1312 782H1482V762H1360Q1344 762 1332 755Q1321 762 1305 762Q1285 741 1231 735Q1197 703 1197 687Q1210 685 1210 673Q1107
572 918 544H837Q749 544 654 538Q616 544 599 544Q553 538 525 538L511 544Q499 538 484 538V504Q484 497 477 497Q477 449 545 449V-127Q545 -161 572 -161V-182Q572 -195 559 -195H267Q209 -195 97 -189Q97 -195 90 -195Q88 -173 50 -148V456L16 463H-11V667L-59
694V728L2 762Q127 768 158 768V775Q138 775 111 782L97 775Q60 782 36 782H2Q-11 782 -11 796V1087H16Q56 1087 56 1128Q87 1128 97 1135Q109 1128 124 1128Q138 1128 138 1142Q138 1155 124 1155H63Q50 1155 50 1176Q50 1260 56 1332Q50 1384 50 1447L36 1454H-32Q-45
1454 -45 1468Q-43 1481 -32 1481H36Q52 1481 56 1515L50 1549Q55 1637 70 1637H97Q133 1637 158 1644ZM-106 1481H-93Q-79 1479 -79 1468V1454H-106Q-120 1454 -120 1468Q-118 1481 -106 1481ZM545 1284V1169Q547 1155 559 1155H620Q633 1153 633 1142Q633 1128
620 1128Q605 1128 593 1135Q581 1128 566 1128L552 1135Q543 1087 532 1087H484Q484 1049 477 1040Q484 1003 484 979V965Q484 950 477 938Q484 926 484 911V884H728Q869 884 925 1033Q925 1076 939 1094L973 1087H980Q993 1087 993 1128H1061Q1061 1135 1068
1149L1054 1155H980Q914 1284 756 1284H545ZM878 1149H952V1135H912L878 1142V1149Z" />
<glyph unicode="q" glyph-name="q" horiz-adv-x="1989" d="M746 1644H951Q1016 1644 1170 1611Q1444 1611 1734 1246Q1798 1139 1833 1041H1893Q1913 1041 1913 1034L1946 1041H2019Q2034 1041 2039 1007L1992 994L1953 1001L1926 994Q1919 994 1919 1001L1886
994H1873L1860 1001Q1853 988 1853 981L1860 935L1813 921Q1800 928 1793 928L1787 915L1800 908H1860Q1890 868 1946 868L1953 802V683Q1953 668 1946 656Q1953 644 1953 630Q1919 444 1899 444H1860L1853 411V404L1886 378L1827 258V252L1959 112V99H1919L1979
33Q1814 -131 1813 -140V-146H1833V-159Q1754 -241 1754 -246L1687 -239H1661Q1565 -146 1555 -146Q1540 -146 1528 -153L1435 -73Q1315 -141 1117 -186V-179Q1075 -193 958 -193Q681 -193 520 -120Q383 -66 215 92V99L229 106H262V112L169 238L176 252Q166 252
156 271L129 265Q124 265 -30 271V291H129Q129 308 56 477Q30 640 30 663V802Q30 815 109 822V842Q109 855 43 862Q43 871 23 881L-17 875Q-17 881 -23 881Q-23 893 3 994Q142 1001 195 1001L202 1014V1034H23V1041Q43 1164 229 1372Q379 1524 567 1591L573 1604H560V1617Q674
1644 746 1644ZM547 1047V1041H620Q626 1041 626 1034L640 1041H713Q726 1039 726 1027Q716 1001 706 1001H660Q623 1001 567 994Q554 1001 547 1001Q494 996 494 948Q479 948 467 881Q527 878 527 855H580Q593 853 593 842V828Q593 809 507 802V649Q544 469 640
364Q643 364 706 305V291H567V278L600 271H713Q748 271 925 205L1004 199Q1041 199 1183 238V252Q1044 397 1018 397Q971 397 971 417Q971 442 1051 451Q1290 696 1296 696H1376L1462 616Q1482 616 1482 749Q1482 820 1455 881L1442 875Q1382 875 1382 908H1309Q1296
908 1296 921L1309 928H1369V954Q1349 980 1349 994H1356Q1483 1001 1522 1001L1528 1014Q1522 1034 1488 1034H1415Q1401 1034 1389 1041Q1377 1034 1362 1034H1329Q1177 1206 1051 1233Q1051 1243 978 1259Q754 1259 626 1127Q605 1127 547 1047ZM905 928H931V908H905Q892
908 892 921L905 928ZM998 928H1077V908H998V928ZM1157 928H1230V908H1157Q1144 908 1144 921L1157 928ZM872 444H878V437L865 417Q872 405 872 397H858Q845 397 845 411V417Q845 428 872 444ZM931 444V437L918 417Q925 405 925 397H912Q898 397 898 411V424Q898
439 931 444ZM229 192Q231 179 242 179V192H229ZM248 179V172Q251 159 262 159H268Q268 168 248 179ZM268 152V139H282V152H268Z" />
<glyph unicode="r" glyph-name="r" horiz-adv-x="1544" d="M169 1644Q182 1644 182 1637Q284 1644 332 1644H806Q1064 1644 1152 1597Q1213 1579 1227 1556Q1220 1544 1220 1529Q1326 1478 1403 1305Q1451 1161 1451 1088Q1451 1063 1431 925Q1471 925 1471 911Q1394
700 1227 599L1125 559V552Q1141 537 1200 443Q1178 430 1166 430L1173 416V409Q1050 403 1010 403V396Q1012 382 1024 382H1193L1254 308Q1321 308 1342 240V233Q1308 233 1308 219Q1519 -84 1519 -93Q1492 -98 1492 -106Q1539 -177 1539 -188L1526 -194H1186Q1129
-194 1003 -188Q949 -111 949 -106Q960 -99 983 -99V-93Q786 206 786 233H813V247Q792 314 732 314Q679 382 650 382H528V348Q528 342 522 342L528 328V16H603Q617 14 617 2Q617 -11 603 -11H528Q528 -45 522 -45L528 -59V-140Q528 -155 522 -167Q528 -180 528
-188L515 -194H237Q169 -194 33 -188V-25Q35 -11 47 -11H121V9H47Q33 9 33 23V375L-1 382H-136Q-150 382 -150 396L-136 403Q33 406 33 416Q33 437 47 437Q60 430 67 430L74 443V905Q76 918 87 918H121L128 959Q115 966 108 966Q48 959 40 959Q40 1013 -14 1013V1047L33
1074V1529L74 1556V1624Q76 1637 87 1637H135Q158 1637 169 1644ZM528 1284Q528 1278 522 1278Q528 1210 528 1176V1135Q528 1128 522 1128L528 1115V1108Q528 1047 474 1047V1006Q528 1002 528 986H522Q528 973 528 966H691V952H630L603 918H569V850H779Q916 850
963 918Q1030 918 1030 966H969L956 972Q969 1019 969 1054V1108Q969 1179 847 1264Q832 1278 712 1284L698 1278L684 1284Q678 1284 678 1278Q654 1284 650 1284Q591 1278 583 1278Q545 1284 528 1284ZM142 959V952H155V959H142ZM176 959V952H189V959H176ZM1458
966H1478V952H1458V966ZM1505 966H1526V952H1505V966ZM1539 966H1600V952H1539V966ZM549 430L535 437Q535 423 522 423Q528 410 528 403Q596 409 630 409H637L650 403L678 450Q651 511 644 511H583Q569 511 562 430H549ZM345 403V396Q347 382 359 382H481Q494 382
494 396V403H345ZM888 -106H901Q901 -117 915 -133V-147Q906 -146 888 -113V-106ZM935 -174H942V-188H935V-174Z" />
<glyph unicode="s" glyph-name="s" horiz-adv-x="1411" d="M672 1647Q683 1640 698 1640H718Q862 1640 909 1607H948Q968 1607 1119 1542H1185Q1195 1542 1205 1522Q1198 1515 1152 1515Q1271 1410 1271 1397V1390Q1268 1379 1020 1147H928Q794 1276 724 1285H718Q586
1285 586 1232Q558 1232 553 1140L560 1107H619Q641 1107 678 1074Q724 1065 724 1048L718 1035L731 1028H889V1008H757V1002Q759 984 895 936Q1156 859 1310 725Q1310 717 1376 646Q1297 640 1297 627Q1312 627 1317 594H1396Q1414 594 1435 515L1422 508H1356Q1343
506 1343 495H1429Q1438 495 1448 475V462Q1448 449 1435 449H1369V442Q1369 408 1376 330Q1376 221 1297 73Q1284 71 1284 60V47H1376Q1389 45 1389 34Q1381 34 1304 -52Q1132 -183 836 -183H830Q467 -183 237 41Q66 52 66 113Q3 170 0 218Q98 283 151 310L178
304Q197 309 369 416H448Q459 416 520 317V304H500V291Q612 192 724 192Q895 220 895 357Q895 378 862 449H928V455Q911 488 876 488H810Q782 488 737 495L724 488Q711 495 704 495V508H711Q729 508 843 515V528L658 587Q638 587 612 594Q601 587 586 587Q544 607
467 627V640H514V653Q310 729 237 857Q187 925 178 1008L191 1015H217Q224 1015 224 1008Q234 1015 263 1015V1028H178V1041Q211 1041 211 1054L165 1081Q155 1107 145 1107H72V1160Q72 1366 263 1522H283Q290 1522 290 1515L303 1522L316 1515Q356 1522 356 1535L342
1542H303V1548Q388 1597 388 1607Q388 1626 546 1640H645Q660 1640 672 1647ZM290 1028V1015H296V1028H290ZM309 1028V1015H329Q329 1028 316 1028H309ZM20 1028H33V1015H20V1028ZM53 1028H72V1015H53V1028ZM560 508H625V488L579 495H560V508ZM362 390V376H369V390H362Z"
/>
<glyph unicode="t" glyph-name="t" horiz-adv-x="1257" d="M166 1642H1291Q1306 1642 1318 1635Q1330 1642 1345 1642Q1359 1625 1359 1615L1352 1601Q1359 1566 1379 1547V1291L1372 1278L1338 1284H1197L1156 1278Q1145 1284 1123 1284L1076 1278Q1064 1284
1049 1284L1035 1278Q1028 1278 1028 1284L995 1278H927V1042Q927 1028 873 1021Q873 995 860 995H799Q786 992 786 981Q788 968 799 968H867L880 961L873 927V866L914 839Q914 826 833 819V422Q833 403 765 395V388H867Q907 370 907 361V-172Q907 -185 894 -185H624Q556
-185 422 -178Q415 -54 415 4V368Q354 381 354 395L341 388H280V395Q282 408 294 408L327 401Q340 408 348 408V813Q350 826 361 826H422V853Q388 853 388 866V954Q388 968 374 968H314Q300 968 300 981Q302 995 314 995H374L401 1028H435L442 1089Q442 1102 435
1102L442 1136V1244Q442 1273 415 1284Q408 1284 408 1278L374 1284H-16Q-30 1284 -30 1298V1554Q-57 1554 -57 1567V1574Q-57 1589 -50 1601Q-57 1613 -57 1628Q-50 1628 -50 1635Q95 1642 166 1642ZM226 995H240Q253 992 253 981Q253 968 240 968H226Q213 968
213 981Q215 995 226 995ZM415 462V449H422V462H415Z" />
<glyph unicode="u" glyph-name="u" horiz-adv-x="1661" d="M47 1641H506Q520 1639 520 1628V1148H646Q660 1146 660 1135V1128Q570 1121 526 1121H520V1075L486 1048V1008Q509 1008 533 975H613Q626 973 626 961V615Q626 602 613 602Q606 602 606 608Q595 602
580 602V588Q580 573 586 562Q586 502 526 502V495L573 489L600 495Q626 495 640 395Q660 380 660 349L633 335Q597 342 573 342H566Q566 277 719 195Q757 175 866 169Q1008 210 1093 329Q1095 342 1106 342H1159Q1215 342 1232 409L1239 442V555Q1239 602 1252
628Q1239 628 1239 642V922L1246 955Q1217 975 1152 975Q1152 968 1146 968Q1146 1004 1099 1008V1048L1139 1075Q1139 1128 1152 1128H1272V1141Q1182 1148 1139 1148V1628Q1141 1641 1152 1641H1605Q1619 1639 1619 1628V1161Q1621 1148 1632 1148H1745Q1759
1146 1759 1135Q1725 1121 1639 1121H1625Q1625 1061 1586 1061V1008Q1619 1008 1619 995L1612 981L1645 975H1712L1732 961L1725 928V435Q1725 420 1732 409Q1725 342 1712 342H1632Q1610 342 1586 222Q1540 95 1359 -51Q1372 -53 1372 -64V-71Q1153 -184 966
-184Q938 -184 913 -191Q635 -191 413 -91Q352 -51 293 -44Q113 80 53 269L40 335L53 342H127Q136 342 147 362L140 455Q147 468 147 475L127 489H47Q33 489 33 502L47 508H93V588L140 615Q140 655 147 655L140 702V822Q140 846 147 882Q140 890 140 928V942Q140
948 147 948Q147 966 107 975Q94 968 87 968V975L73 968H47Q29 1001 20 1001H7V1021L0 1055Q40 1055 40 1128H173V1141Q74 1148 40 1148L33 1161V1628Q35 1641 47 1641ZM1312 695Q1312 682 1299 682V675H1312L1319 688V695H1312Z" />
<glyph unicode="v" glyph-name="v" horiz-adv-x="1354" d="M-240 1641H266Q277 1641 307 1546L570 750V723H549V710Q603 706 603 656H678Q693 656 732 514Q784 359 792 359H799Q799 367 826 467V487Q803 576 792 602V608L806 629V642Q806 656 786 656Q773 649
765 649V662Q765 681 779 703Q752 703 752 716V723Q787 723 806 757H860Q921 757 921 818V824Q853 831 819 831H799Q786 831 786 845Q788 858 799 858H853L887 865V878Q863 885 860 885Q847 878 840 878V885L826 878H819Q806 878 806 892L988 1452Q1051 1636 1062
1641H1575Q1589 1639 1589 1627Q1319 893 1319 885Q1326 885 1326 878L1339 885Q1346 885 1359 878L1400 885L1407 872Q1390 858 1386 858H1319Q1305 856 1305 845Q1307 831 1319 831H1427Q1440 831 1440 811Q1417 757 1407 757H1339Q1312 757 1292 723Q1251 723
1251 710Q1258 710 1258 703L1272 710H1278Q1292 707 1292 696Q1278 694 1278 683V669L1312 642Q1099 8 1076 8H995Q954 8 954 -46H1083V-67H988Q981 -67 927 -188H921Q914 -188 914 -181L900 -188Q894 -188 894 -181L846 -188H590Q575 -188 563 -181Q551 -188
536 -188Q479 -188 448 -175L408 -181H401Q392 -181 354 -80Q356 -67 367 -67H435Q448 -67 448 -53Q357 -46 313 -46Q297 -46 293 1Q307 1 307 14L334 8Q419 14 428 21Q273 432 226 588Q205 656 151 656H97Q68 710 30 710V716Q41 723 64 723Q-112 1226 -260 1627Q-257
1627 -240 1641ZM-85 723H-24Q-11 721 -11 710L-24 703H-85Q-98 703 -98 716L-85 723ZM205 8Q216 8 232 -40L219 -46H212Q201 -46 192 1L205 8Z" />
<glyph unicode="w" glyph-name="w" horiz-adv-x="2342" d="M-161 1644H326Q344 1644 380 1468Q394 1367 441 1367Q468 1367 468 1306Q458 1299 427 1299L529 886Q552 771 590 771V731Q590 717 576 717H529L536 670H610Q624 670 624 683Q617 695 617 710L631 717H691Q691
723 705 771V778Q698 778 685 785Q786 1128 813 1252Q830 1306 847 1306L861 1299Q885 1299 895 1353Q879 1367 847 1367V1374Q922 1626 922 1644H1395Q1413 1644 1456 1428Q1474 1360 1524 1360Q1538 1360 1538 1326V1313Q1538 1299 1504 1299V1286Q1538 1128
1646 785Q1673 776 1673 724L1659 717H1612V703Q1626 687 1626 670H1673L1707 676L1700 710V717H1741Q1781 717 1781 771Q1768 788 1768 791L1863 1143L1971 1563H1978Q1971 1576 1971 1583Q1989 1644 1998 1644H2025Q2039 1642 2039 1631Q2061 1644 2079 1644H2499Q2499
1597 2485 1597Q2485 1590 2492 1590L2269 785Q2282 783 2282 771V737Q2275 717 2242 717L2208 724Q2192 670 2181 670H2086Q2072 668 2072 656Q2072 643 2147 636V622L2140 609L2154 602H2242L2275 609L2282 595V582Q2282 568 2228 561Q2228 548 2201 446L2242
433Q2228 404 2120 -7L2099 -21Q2086 -14 2079 -14Q2079 -21 2072 -21L2079 -34Q2051 -183 2039 -183L2011 -190L1998 -183L1957 -190H1944Q1937 -190 1937 -183L1923 -190H1626Q1568 -190 1538 -177Q1526 -183 1511 -183H1497Q1477 -183 1443 -28H1423V-14H1463Q1463
18 1355 439H1321Q1301 439 1280 561L1294 568L1307 561L1314 575V582Q1314 597 1240 602Q1204 595 1172 595Q1163 643 1125 643L1111 636Q1100 643 1077 643V656Q1079 670 1091 670H1165L1179 676L1172 710V717H1233Q1233 764 1213 791Q1226 808 1226 819L1219
832Q1247 898 1247 927Q1214 1062 1199 1062Q1144 870 1131 778Q1145 776 1145 764Q1145 710 1057 710Q1057 670 1043 670H949Q935 668 935 656V643H996Q1010 640 1010 629V615L1003 602H1131Q1145 600 1145 588V582Q1145 569 1084 561Q1084 521 1064 446L1098
433L949 -156Q949 -190 922 -190L888 -183Q881 -183 867 -190Q800 -183 766 -183L705 -190Q692 -183 685 -183Q658 -190 637 -190Q624 -190 624 -183L583 -190Q536 -190 387 -183L292 148Q299 162 299 169Q264 224 218 439H177Q169 439 136 561Q177 570 177 582Q177
602 35 602Q21 643 1 643Q-35 636 -40 636Q-51 643 -67 643V656Q-65 670 -53 670H21Q35 670 35 683V697L28 710L42 717H89V744Q89 768 48 798L-80 1292Q-78 1306 -67 1306Q-54 1299 -46 1299L-40 1313Q-40 1325 -60 1367H-94Q-118 1386 -175 1638L-161 1644ZM-175
1360H-155Q-134 1353 -134 1319Q-134 1306 -148 1306H-161Q-175 1306 -189 1353L-175 1360ZM1253 852V839H1260V852H1253ZM1240 839V825H1247V839H1240ZM427 663Q434 650 434 643H515V656Q515 670 502 670H441L427 663ZM1511 656Q1513 643 1524 643H1599V670H1524Q1511
668 1511 656ZM-128 670L-121 656V643H-141V656Q-139 670 -128 670ZM522 643V615Q524 602 536 602H576L610 609V615Q610 636 556 643L543 636Q529 643 522 643ZM1619 643L1612 629V615Q1614 602 1626 602H1680Q1690 602 1700 622Q1673 643 1619 643ZM671 595Q671
575 637 555Q663 439 685 439H698L732 568Q759 568 759 582V595H671ZM1727 568Q1747 439 1781 439Q1818 554 1829 568Q1842 568 1842 582V595H1775Q1757 568 1727 568ZM712 433Q719 423 719 392Q739 399 739 433V439H725L712 433ZM1802 426Q1804 412 1815 412H1822Q1822
420 1829 433L1815 439Q1802 437 1802 426Z" />
<glyph unicode="x" glyph-name="x" horiz-adv-x="1188" d="M-254 1641H267Q288 1634 463 1350V1337H422V1323H503Q551 1281 551 1256Q537 1249 530 1249V1242Q584 1170 584 1154H618Q659 1127 659 1100H672Q692 1104 692 1148Q663 1148 632 1222L692 1290Q900
1623 922 1641H1443Q1456 1639 1456 1628L1220 1276Q1148 1215 1125 1168V1154Q1145 1154 1145 1141L1105 1073V1066H1152Q1166 1064 1166 1053L1152 1033Q1200 1033 1200 1019L1186 1012H1118L1105 1019Q1060 952 1037 952Q1003 927 902 755Q1238 243 1382 39V32Q1382
22 1348 12Q1457 -154 1463 -177Q1451 -184 1402 -191V-184L1389 -191H1132Q902 -191 902 -157Q902 -145 801 12Q811 19 841 19V32L720 221Q686 272 686 296L720 350Q701 395 679 411L591 282Q511 129 456 86Q443 93 436 93Q429 93 429 86Q422 86 409 93Q339 86
300 86H287V73H442Q456 71 456 59Q440 19 402 19Q357 19 327 -63Q242 -190 233 -191H-71Q-126 -191 -200 -184L-213 -191Q-267 -184 -267 -177L-281 -184H-288Q-301 -184 -301 -171Q-176 19 -159 19Q-106 19 -92 59Q-105 66 -112 66Q-125 66 -261 73V79Q-259 93
-247 93Q-209 93 -200 86Q-163 93 -139 93H-65Q149 429 375 749Q301 877 246 945Q248 958 260 958L226 1012L240 1019H253Q260 1019 260 1012L273 1019H287Q294 1019 294 1012Q305 1019 321 1019V1033H260Q234 1066 206 1066H158Q104 1154 50 1154Q22 1203 -11
1242Q1 1249 16 1249V1262Q-11 1323 -78 1323L-92 1317Q-129 1323 -146 1323V1337H-78V1344Q-78 1357 -267 1628Q-265 1641 -254 1641ZM395 1337V1323Q409 1323 409 1337H395ZM57 1060H84Q125 1055 125 1039V1033H64Q54 1033 44 1053L57 1060ZM388 783V776H402V783H388Z"
/>
<glyph unicode="y" glyph-name="y" horiz-adv-x="1317" d="M-178 1641H349Q412 1572 518 1384Q504 1378 444 1371V1364Q444 1354 464 1344H491L539 1350Q575 1291 586 1290H674V1269H600V1263Q606 1249 606 1242Q590 1229 579 1229L694 1033H708Q741 1100 741
1107Q725 1107 701 1168Q736 1236 789 1236Q813 1269 843 1276L877 1269L910 1276V1290H850Q836 1290 836 1303Q836 1309 1052 1641H1573Q1586 1639 1586 1628Q1424 1405 1363 1290H1424Q1438 1288 1438 1276L1424 1269H1350L1309 1229H1269Q917 692 917 681H1005Q1019
679 1019 668Q994 654 965 654H931L917 661L910 647V458L951 431V384Q951 370 938 370H796V363Q811 363 823 357Q829 357 829 363L863 357H971Q985 355 985 343V-150L1012 -177Q1012 -191 992 -191Q985 -191 985 -184L951 -191H647Q640 -191 640 -184Q633 -184
633 -191Q551 -182 539 -177Q539 -184 532 -184Q532 -180 498 -150V330Q498 339 478 350H376L336 357Q323 350 316 350V357L302 350H295Q282 350 282 363L295 370H444Q458 370 458 384V431Q458 440 410 458L417 505V634L410 647L431 661H478Q485 661 485 654Q518
663 518 674L451 681H417Q368 723 45 1229Q57 1236 72 1236L65 1269H106L140 1276Q140 1290 126 1290H52L5 1344H-70Q-80 1344 -97 1371Q-16 1378 -16 1391Q-178 1614 -178 1641ZM431 729V722H444V729H431ZM289 681L295 668L282 661L275 674L289 681ZM343 681H349V661H329V668Q331
681 343 681Z" />
<glyph unicode="z" glyph-name="z" horiz-adv-x="1505" d="M169 1644H1564V1624H1490Q1466 1613 1361 1400Q1409 1400 1409 1387Q1244 1054 1185 974Q1119 974 1117 967Q1106 974 1090 974H1077Q1077 970 1090 953V946L1084 933L1131 926Q1151 926 1151 933L1185
926H1287Q1300 924 1300 913L1287 906H1219Q1195 906 1158 899Q1149 906 1111 906Q1063 845 894 506L907 499H975Q989 497 989 486Q985 466 935 466H880L840 425H752Q734 398 670 398L711 371Q632 219 616 174H684L725 168Q731 168 731 174L779 168Q819 168 819
174L887 168H1219Q1266 168 1368 174Q1387 127 1395 127H1476Q1490 125 1490 113V-103L1483 -184Q1416 -191 34 -184H14Q0 -184 0 -171Q112 29 149 120V127H142L81 134Q68 127 61 127L54 141L176 364V384H142V398H183L223 432H312Q316 432 352 472H440Q454 472
454 486Q454 499 440 499H372L359 506L569 899Q681 906 738 906H752Q765 906 765 919V926H758Q691 926 555 933V940Q555 980 664 980L819 1265V1285H264Q249 1285 237 1292Q230 1292 230 1285L183 1292H135Q122 1292 122 1305V1387L129 1400Q68 1400 68 1427L74
1468L68 1509L74 1549L68 1617L81 1624H142L169 1644ZM108 1421V1407H115V1421H108ZM34 1387H47V1299H34V1387ZM183 1346V1332Q196 1332 196 1319H203V1332L183 1346ZM372 974H433V960H372V974ZM528 974H542V960H528V974Z" />
<glyph unicode="{" glyph-name="braceleft" horiz-adv-x="1014" />
<glyph unicode="|" glyph-name="bar" horiz-adv-x="1014" />
<glyph unicode="}" glyph-name="braceright" horiz-adv-x="1014" />
<glyph unicode="~" glyph-name="asciitilde" horiz-adv-x="1014" />
</font>
</defs>
</svg>
